<mxfile host="app.diagrams.net" modified="2022-03-30T02:16:58.810Z" agent="5.0 (Macintosh; Intel Mac OS X 10_15_7) AppleWebKit/605.1.15 (KHTML, like Gecko) Version/15.4 Safari/605.1.15" etag="emAnWmE5wTEdyTaeDQI-" version="17.2.5" type="github">
  <diagram id="r6-Mp9o-tzHSaHdfjmZK" name="Page-1">
    <mxGraphModel dx="1572" dy="948" grid="1" gridSize="10" guides="1" tooltips="1" connect="1" arrows="1" fold="1" page="1" pageScale="1" pageWidth="850" pageHeight="1100" math="0" shadow="0">
      <root>
        <mxCell id="0" />
        <mxCell id="R7s_IrtqFpmnAKjUKmlR-21" value="Background" parent="0" />
        <mxCell id="R7s_IrtqFpmnAKjUKmlR-25" value="" style="rounded=1;whiteSpace=wrap;html=1;dashed=1;fillColor=#dae8fc;strokeColor=#6c8ebf;" vertex="1" parent="R7s_IrtqFpmnAKjUKmlR-21">
          <mxGeometry x="120" y="170" width="610" height="760" as="geometry" />
        </mxCell>
        <mxCell id="1" value="Equipment" parent="0" />
        <mxCell id="R7s_IrtqFpmnAKjUKmlR-1" style="edgeStyle=orthogonalEdgeStyle;rounded=0;orthogonalLoop=1;jettySize=auto;html=1;exitX=0.5;exitY=0;exitDx=0;exitDy=0;entryX=0.5;entryY=1;entryDx=0;entryDy=0;endArrow=none;endFill=0;strokeWidth=3;strokeColor=#FF8000;" edge="1" parent="1" source="R7s_IrtqFpmnAKjUKmlR-4" target="R7s_IrtqFpmnAKjUKmlR-5">
          <mxGeometry relative="1" as="geometry" />
        </mxCell>
        <mxCell id="R7s_IrtqFpmnAKjUKmlR-2" style="edgeStyle=orthogonalEdgeStyle;rounded=0;orthogonalLoop=1;jettySize=auto;html=1;exitX=0;exitY=0.5;exitDx=0;exitDy=0;entryX=0.5;entryY=0;entryDx=0;entryDy=0;endArrow=none;endFill=0;strokeColor=#FF8000;strokeWidth=3;" edge="1" parent="1" source="R7s_IrtqFpmnAKjUKmlR-4" target="R7s_IrtqFpmnAKjUKmlR-7">
          <mxGeometry relative="1" as="geometry" />
        </mxCell>
        <mxCell id="R7s_IrtqFpmnAKjUKmlR-3" style="edgeStyle=orthogonalEdgeStyle;rounded=0;orthogonalLoop=1;jettySize=auto;html=1;exitX=1;exitY=0.5;exitDx=0;exitDy=0;entryX=0.5;entryY=0;entryDx=0;entryDy=0;endArrow=none;endFill=0;strokeColor=#FF8000;strokeWidth=3;" edge="1" parent="1" source="R7s_IrtqFpmnAKjUKmlR-4" target="R7s_IrtqFpmnAKjUKmlR-12">
          <mxGeometry relative="1" as="geometry" />
        </mxCell>
        <mxCell id="R7s_IrtqFpmnAKjUKmlR-4" value="" style="shape=image;verticalLabelPosition=bottom;labelBackgroundColor=default;verticalAlign=top;aspect=fixed;imageAspect=0;image=data:image/png,iVBORw0KGgoAAAANSUhEUgAAAKAAAAC+CAYAAACyEwTGAAAAAXNSR0IArs4c6QAAAERlWElmTU0AKgAAAAgAAYdpAAQAAAABAAAAGgAAAAAAA6ABAAMAAAABAAEAAKACAAQAAAABAAAAoKADAAQAAAABAAAAvgAAAAB4PDBqAAAlZklEQVR4Ae1dB5gcxZV+M7NBuworrXLOAYEiICEhgsAkYYIBySIY3wfnMxgb2+BzwIbTEXyHzxHbGLC54wBLaBHm4IQA4UOAJJTRCuUslHPeOOneX93VUzM7sad3dna76pO2q6vee1X16p/K9ZpIO62BJtSAx+m0p/57RZk3GLqJQnSvx+MZz/KLnU5Dy2tuGvBQmEInveT9IBCm53bsObFw1Qvf9KMUjgLwq4+/Nsrjpfc8Hm+3MKSHxV/4tNMaIG6QGBICE8uDQzwTX582LegYAKc/OesCD3k/ZPFtta61BpJpwOP1UTgUWN8q0PUCXzLCdOPueGr2NSHyfMgNakm6PJrOxRrgVpB7yS4Bb/WWrAE49amKqzxheoeb0gIXq1QXPVMNcHfMbmBWXfDUJ2bd6/N4X2BB3kzT1/RaA9wMhm0DcNrjs+/yeukVrUatgWw0YKvluv3JmT/0+jwvZ5Ow5tUagAYyBuD0J2c/Qt6ip3k+bbv11KrXGpAayAhE05+a/XNeUfyJZNZPrYFsNZA2ABl8f/L6Cu8LBcQCdrbpan6tAaGBtADI3e6LTH2P1pnWgNMaSAnAO56YMzhAwds8Xk+104lrec1MAyHebgh5vGFfuJeHPJf7iorHBuvruRD2t1xTArCZqUhnN4camPp4xQSvNzSXt2DL7YIw41lwDsunk8pzDbz+2LQlrQur+oVD4QV2sxq3BXxm3tbi43VnSwprCor9BTVxaRomWNUwKJOQBOwNgzESKOX/NkcENtka5oOzwIE2xSmaiStZiW8kr5nxdFIvaFMSCARq/K1rO9e9NGNybWyOpv6iopuvPryDwzM+CxAFroqKCt+Owv4/D4U81/NBrb681teahfJWLzvlaFU4xK9GqGh5jajIOCBkeQ2PeQQHUoSYsBgzyDghQsQpwca7oDeoRQBYODGT0wri7BjnykRG+OQZE6gFk+8hcBrMECRkgVIEoVCm461yUoUgnn/lQqhBK/4aIgSP+Q469ob4j0xfLTtIY98j5UGk+GdmEUoGh/VgjxGAv8LHf4RfTc9iMCKlrgU9+CwPCE05wmNE4G+Yx3q8TSbKIN7D4QAHA6sHQqHwkpCv6kevP3LPEbBJd/sTsx/2FhX9MujHmDB9J/VEv65YX15bULPc5/UNDIaChgSlwJGcG4WQMAChILNKZtSdKUA8YpWOClKd9coey28SgDeK2no3QkHfIN4KMGkgS9CJP1bSMl+CSkk43rukFaIkrSVOcAi5Ij8yHskq/iheQS0IovIv+EWcJZzjTfmmLJmaFN0wDVO4RW9JEJUl+KVIJR/wIljKAzjUd8QDmOFg6LDHGxw566d3HBJh/Gfq9ytKfJ24Q5CZkhEpnmIM+My8pe3qC2qWAnwhCb4UjDranRoAOD0+X5cwed9QNfD6b6bVMPgOq2Hp+AUAa+qKpnp9BYM1+NJRmaYJcyNVUFhyMV+/6BOljTBl1v8yswAgN9DfCStjoCih+kVrII4GQsEA+UI0Lk5URkHGIdIwjVJGCRkJ0MTu1IDoigOhLtmW3lgHtKYi2YrT/G7SQMhcQMimzAYAs5GgebUGstCABmAWytOs2WtAAzB7HWoJWWhAAzAL5WnW7DWgAZi9DrWELDSgAZiF8jRr9hrQAMxeh1pCFhrQAMxCeZo1ew1ocxoJdMjHjmhEv87UvbwN7T9+lip3HKICn/69JlCX7WANwDiqCwRD9A9XjqDzB3ezYncfPk2/n7uC6vyRc4NWpPbY1oD+SceoDnucX5t8XhT4QNKnSzv62fRJ1Ldzu0yPvMWkoF9VDWgAKtpAtzv9suE0bmh3JTTiLSstpgdvvJC6dijVIIyoJSufBqCpPq/XQ/dfP5bGD+2RVKGFBV56ZNrFNGZAVwJg9TmOpOpKGanHgKwiLx8z/96N51Mv7l7TcQDrPdeMovpAkNZ9cQSn1LWzqQFXt4AY77UqKqAf3DIubfCper6PW8zLRvQlTFq0s6cBV7eAZa2L6Ue3jqdWxYX2tMdcUy8Zxt1wmD5au1u3hDa06MoWMMhjt85lpaLlywZ8Ut+3XXIO3TJxKNX7gxqEUilpPl3XAuLW4IBuZfSdG85PU0XpkV0xuh/5eKF6zqJNzGDeeUyP1dVUrmoBMWk4t08nun/KmEap9MtG9KF7r+bJiV6sTlu/rgEgJhwThvWge64e0ahbaqMHdqUf3Da+UdNIu3abAaErAIix2fUXDqTbLx2ekyoZ2qsjTblgkFgnzEmCzTgRVwDwnN4dafLI6DvUjV1nXxrbn5PQY8FUenYFALuVw8ZSbp2PF6tLsljeyW1umy41VwBw16FTOd+73XHgBFXXwaiUdsk04IplmL1Hz9Iv3lhGV4zqQ2WtW1n6CPIORh2PD2NdbX3AMMemRPiZ1s/mKOCwlGM4D9XU+5V3ojrm3X7whDhDiFYQkx/tEmvAFQDEXu2RUzX0yoL1DCwTOhzWu1NbsQ9sQEQFCkcqwMEXUWAO0edjD5xKyq8hFrr7yGmxEI1oUOHTpNql1oArAAg1AA9FBfxtRgYPZsUP8D7u0F7lwphkajWlpti85xj9Ye5KBp9u9VJrK0LhGgBGisyf9fT5aEjPDiIIJ2GccP27tRfdrW75MtOmKyYhsSoB5pQeNjba1rvT8mxlohkyuRKAOD6FSYV2Ta8BVwKw6dWucyA14FIAhsnHHzvWruk14MpJCKbEH67ZRVeN6U9BfJLAAbds8z6xpOOAKFeJcCUAC/nc3rurdtLC9XtFZYvPRiizCPElZD60Kh186oKyFcMeXmsWC3+nq+uMNUUrUnLrZzINuBKAUAh2KWr9ARrVvwuVlWJ3RG0JMU3Ge0MbtAJfEqz8sv/EWdq454hu/aBUG861AISubrpoME0a3suG2qJZXny/klZtOyhAHR2j31JpwLUjcfSc5W0i+8KpFJUsvmPbkqguOhmtjovWgGsBiK4UR/SdcHrYZ1+LrgWgfZVpTic1oAHopDa1rIw14GoA4n6wE65W3we2rca8mQVjnQ0HROFytUsxd/k2KuAdkTYlRdYkApMT4YBNrMaYr+rD+qwZR+49eoaW8yJ0LvKMvGAfGydusIzUElyTAxAWplq3KqLB3ctoQNf2QsFLNu2nw6eqG/1Q5+nqevrL/DUUZPC3Zhsx0gnQybU+DoQNLPkxRxmHxevq2oC4flkgD6pKAY30HDuoO40e0I2Onq6mJRv30METVc1+/TGi9UZSWiqx3Tq0pnuuPJdKlQs85/XtxEfol1PAoS4yWR5KGHh3sUHKgd3bJyNrEIdzhB+s3kHvrtzRIM7pAGwXThjWm74xZawl+soxA+gXFYtoz5EzVlhz9DTZGBAtSD+2Onr/taOiwAcltiryUdf2ubnJButYw/t05Fa4MKP/JcUFdONFQ+L30Q4jwR8I0eTR/aOkIr+P3Xk5H6x17lR3VAI5emkSAGK8d17vTvT1yefGHctgdFPAhiDhAFSMe2L/OzWBQBqiW4UnQ8dZI49DYzHkAfKi/iv5wSHaWIc7Kg9PncjG1LvyoQq7pYiVmtv3nHfBUPCFg7rRjeMGJi0pFF7EIPzKRUOpU1mJUTMWh4eOn62lNz7dLK4+QvUh7qYgG3CKXDzKwbGrNOod4JD4wY8PLCifvA6A1uyCwT0I1leNMqAchtu+/zit/eJwwh8JDlY8fNsEevG9z2jhut2WTMmf78+cAhBjmStH9qXLz0u1/4qrPR7uotvzr7tTXB1258vmXxzpTh+zXT6MH8cP6U6oDLWm6oNBWrxhL+94qAcN4oprtMA2PMEa0L0DAysaqSfO1NCuwydFfm+ddA5NHN47bh7Q8j/0/Ptx49TAe68dS8WFBfT+yu3Nyi5NzgCIFuCmcYPogkFdVb0l9ac6M4reD+B68IaR1LNjm7iyJg3vSf8yc7FoGYoLfVTClSShAFCU8lhOtk5xBaQIRKvFd5wijs9y1dT5xQweyztP3H0ZA0MliJC+vXQLvc2teDnvJSdymVhYuOvKkby/XUIVn2wQLWwimfkUnhMAogu667JzaKh5E81JBWCM2L60KKFItEBYo+vDd4C/c0NkFhlh4LbWJgLB99tvfikiCj4OPHa6hp6u+FQArygB+EDauxPbpGYZMY0joqIc4lPRSIYp4wdTG9bHC++sMnoEGZGnz0YHICoAyyy4BJ6+k21U+hzJKLHAffmI3qJVSkT31pKtdLKq1gAEiGKyoHah8I9mK/ljeSwb7xpmp3Yl1LdLGR06WZUouYzCAfTq2rq0eS5lu9UYljz79nKexKXN1iSEjQpAdB/3XzOS2rMt5sycx/HBNFrKZG7zvmN0gD/JBUAJSoUe77EA7MLrl/HaU6QB2uSpJctJorjMmukLhvSgx+6aTDNe+TCRwLwIb7RlmDY8s/v2lNE2wGfoJZ2tpnitT15oNU8y0Y9NEc+4e7KYnGDHKR9dowAQH/V74LpRtsGXrqJawdSGdkk10I+3N39z/7XUM6MhUFKRjkY6DkCsbU2fNETsZjia0xYqDB2rn5eLUrlsWjCMBx//+hW8UtDWMVs4qfKbbrzjAMSyRu8ESyLpZsptdMFg8u4RIK1hs2/ZOBhm+vZN4x07BZ5NXlRexwGIJZesDxGwxuUugZpZN/szm4LE1xSOnmGBP5+c4wCs5kXYRRv3ZTULhIrwPbbm7PIx9/85f3Xe7ZI4DkDMTBdvOkAvL9hoGWxszkCyk3fowDJmaUdAI/C8t2IbbeAPK6azutAIyScU6TgAkRK6z51sl/n5+WuzHrskzHmeR6TVAqZFZBQ01TpmMnUsqNxJL31QiU2avHONAkCUEq3AsTO19Kf3PqdTVemv4jeZhngegKmA+A8/FpP5Pyo+9inAAMIsHQ5PpAUKJqqu9dtKreLj9fTS/MqE+9G2hDrI1Kg7IVAujr0/804lffOaEdSFPxCYrsMQ0Mm100CKmSYsnLbjHRv8cAAMtasSWGMgSgdvj/L4hx8kTXrn89AkNU6zhB/NKx98zie2t4iF6EjuZQ7z49moAEQRAUIcw/rzB+v4AOpw6pXmEg0OEARCqdfHjDSSVCJH4cTKPD46jz1acfLErA1hfJzbvLYlxeKzq3aqBJMudWaJ8u44cJK27T8hLjslyVkjQc8oxTNvLqPVbC6kVWEhlzBf4ccHj+0o3Q6Pn60QPPfeGnEqZhgbB0/loDK1YuPSc22jpdrKFT6qf+e4JDsOniIcaT9TU0+/+p8VUZ9fQFeKfeonv3apaPniCkgSCP5vPvMuf5BG2ZHhjKPlxhEsGEM/y+niWFY8t/sIvl+SGhzJQBwrFz+IX81ZQpv3HNWnYWKVgy261xZtFqehxw7oEhsd9Y6JDG7GJXN7+NMI6C5ns8y53MKJYwRcn6JOUWvsOctjJ6QLJ87lKfWNym/F5wPtOiSBOyXqeT+kLUF1traenpy1kIcebawwEceMiDsibv5xDyEyHD8XGBKgB+Hz3vEJlFD8yGe8/DHrrYpbff5RJJGrsDWp1772s8h2xeLNVMXAuIQPiyZy6MqO8anhv3ywlrq0K1XUjxomcTVx077j4qwfKgj2+YRjpUf0blaaAGOilBo3HGPgU1XHrESMvPERfRSQHYYa767YSqUMZHxvOFJQg2bdrsPilE51Xb0lI57nMB/9+rfXFtGJszWpe454ApoorEkAiG2h+ZW7+PxdHd1w4YC4RZcL0Tu5C93O/4VjPKGVwwF7PNGyRcAWV0xeBEqwGZnBj8IAn8zcPr7c/vu3V1jRsnwoG1pMADPZcOQLXvJ6cuYnoqVEz9EcdCLL3iQAROKolCWb9wul3Tx+kMyP9VQ3363qMlsy692itu+RXaIdCU5a2pfdtgAdZ0ZMHGQDzgU+zkta8RwWl3/75lKhx3jx+R7WZACEYtCCrdx+SCzV3M0zZOlQCTv4V50Ld4aHAgvX7aFxfIBTgiCddGHa7cX310SN/9Lhs0ODPdw1Ow+Kq6lyPAs5i/gW3Ivvr45pT+2k0HQ8TQpAFBtdxuZ9J+iP8yppZL/OYuH3s22H6AT/4mU33FjqEWt1jPYKnsTM/GhDdHpKP4aGSIJTNEpmXDEPJdBS52LbDQvRv39rOY3iqwC49LR252HaYM50Zd4aS0+NKbfJAYjCAWgHT1bTwdW7rPFLY4MP6cIEyJ2Xn8s+o6/DhMCcGyA6Lbedl4D+OBfjNycHBvGT3sD3g/HfyC2vb2LS0sxdXgCwKXSIlvfK0f14DS87FQzjr7EP7F5OW/kCOWRql5kGmv9PKLPyRlMr3Wx0RGZvALFDojJLuAVQuxuALaACm3sRNACbew028/xrADpQgXrsZ1+JrgUgFnpP80EBJ9xeNhLZzG8QOKEGWzKymwLaSjI/mDBpqPhkI63canzhSD2yJOay5lqHXPJQ19pkGNZDYAfm2JnGNyecH1pzPheuBCAAhEVknBPEiRqx92pOYyPgMnzyXQJQvMsprxnZhs8TVvHpFu0y14ArAVhWWsyWssYQLGfBSZAlUx9aRdDJp6TFO/aEZ360ntbsOCSD9TNNDbgSgP3ZZkoHtqPnlMPZu8E9yqmS97W1y0wD7pyEpNPkZabHHGzEZZihZkLuTgA2k8pxQzY1AN1Qy3lcRlcCUD3s6lTdyImxU/LcIseVAMTJFdxYc9LhbJ4+DJO5Rl0zC0YLFcAHRPjfGV42efjFBeKesLWsYjZhkflJxAe1Wq2mYDDjIJMvvJ+tqxNPeZkdn1awc7Yw8+pr/hyuACDA057X/i4f2Ye6dSgVX8gUoDJxVMD7aAVR31rAnZUwwcB67GUgHIlXj8VLCMjWD/iEcfIX369MeI9D8uhnDi+mN6Wyse737esTmRR3Pmcwi/v9m8fTT15aIC7OO59Cy5HoijFgn878PY4cu3I2A5LsGyE5zk7eJucKAB7lAwO5dvv5rq/f4YlOrsuQi/RcAcC1u47k1EQcZtgvvLfasHSQi1psxmm4AoCYkf7qzRVs4sKZLxclq+8Dx87Sv/51ofiaeTI6HWdowBUAxAwVVuZ/9/ZKOnaq8bpjfAHz12wWDZ/8kksyGmjJNeAKAEoV+NmI0S/+tow27Y0YC5Jx2T437D5Kj89aRNX19iyZZpt+c+V3FQCxRgdrCC+8u4a28YVyp9xWtuzw7NxVwnRG7LqhU2m0VDmuAqCsRFhdeG7ealq++YAMsv1ctH4P/e6tZXobzqYGXQlAqauXP1xHn6zdI18zfn70+Rf0yv+tY/ChbdXOjgZcsRWXSDGwbPo/S7dSrT9AV4/tn4gsbvhr/FXyhQxeyFAvNMUl1oEJNeBqAEIraLzeXr6NbUjX0S0Th6XsSrGvDLNsn+04SIW8vBN9ZCGhnnVEAg24uguWOoHF1kXr99KrC9bLoITPZ9/5jNbsOtQiLFMlLGQOI1zfAkpdYxy3Yut+tmpfR/deParBPi6OWP3HnKW0j7+qri0hSK1l/9QtoKJDWCLdwksq/8FrhbsUC604KohZ8wE+ZqUXmBWFOeDVLWCMEjEmxOGFXzIIh/Usp7LWrahy5yHxnV3d8sUoy4FXDcAESoT1USxWY4aL7lmDL4GisgzWAEyiQLSG2NnQM90kSsoiyuPxkh4DZqFAzWpfAwAffzdtuQagfR1qTpsa8Ppg0ji40htoe5UGoE0lajZ7GsB4OhwIzBsW2DT+rzOmnNYAtKdHzWVDA74C/nRsMPRuIOj5ynoaXjD9yVlz9STEhiI1S+YaQMsX8tc//9pj0+8D91efmL3I4/FdrAGYuS41R4Ya8PFHs/31wT9XPDr9vjtnvNouWFD4Po8DLwoFA3oWnKEuNbkNDTD4ZlQ8OvWf/un55wsD3oKNvLAqwAdRegxoQ6GaJT0NYLbrCYd/xuD71+lPv9Xj9JGy9V6fD1+FtAToLthShfY4rIFQyB94gMd8z9359Ku9AvW123jtrzgM+zyK0wBUlKG9zmmAtzDvnv3Y9L9OfbxiRKCe5vO6c7Ha8smUNAClJvTTKQ0EA+HwtDmPTv/b9MfnjPf6wktDaPUivW5UOhqAUerQL9logDFWxcO+K+b8ePontz9VcVU4FPhbKMwb6kmcBGACfCbhTBKFJFWBqh9sSd+ZWRmjiu8iqO/xZCeVp6QHOqkO+CWffHKQcPHe1TDVD4aodzP/Mh2RoEoQW4AYfpBa5CYt3oU87CKYypA08skkwiV6V8NVv+TL/BnmpT22Yac6X+GNM398y5Y7fv76LWGP943oilQJI34DgEG6DkEhq3okgaVGDgjIQHFvIioGL0ElhL3GmzngjDFGaqQTkRcRbP4eFFHEvFFTdY/kM4hwYsUSL6JUZpPWfKgx8PPSqJW06okVA9pQKJabA82EPYpuIMeHP6YLxEsjRpRVi5Y8MJtEHKbeNVbTMoslkxJPwSXle4JCShQdv8QttRmIvBtcht6Rpej0ERDkHQ1u2jyhqDsMsx+5Zcu0J179RigUejZBKiKP6h9R46Wl/iVq4HH1JR1/QgYDOlEAYnnG52GMvynFxzKb3HH5Gog0Ao5Z4WpGy2NEqHExUfzqSR7dkMEMKYz++cSlK5ShDcrKEVbeJVEkIHWWIrSSG/IkPq0w4YG0cgFOWVZg0qBtmJKHaevpbK0q46tPVNzvK/A9iwXmdJ0AYHVd4VqkxKgWfJFsG+/ir9IP8sUwdkac8IFBmV4b8YgxnLi2GCGPmLu14tkj5St0iA5xeFSQ9W6Egq1BfFQAf5bLTEf4zJYsFK6K4YsptcwPsob/RRGhshuUAmJySEG+PyLaD9Se0IvKy2Gqs8pjBEbKY/LwIyJfvMhkycqSonArJeGRnCGLBx4zysqF8d6K36tFWMgULIEaDkd0IxpKkd6ZAv7S2Y+Y4VUpiAcIj2QCPvCZfR71EbmSKUqJImfyJfIUeo28mr5YZgSbAmLlxJIiHn1pTGWYgrN4KAmzl882W7KwNylBr1BZ8el6YnkBICHbLLsRH0nX0kk6CTQQHs0kparjfIQhD6KoyAvelXLHpp8iCVGKWBqI83h9xGBrG52jzN/iNfqZS9EcWgM2NaABaFNxms0ZDWgAOqNHLcWmBjQAM1Rcg/FQhvyaPFoDchISHeqyN9gMVGfxAmQI48E2vh8iZ72wjiDmLnLWCTboitdjcakdfsTXB0LW4ovkFWQciXjphDwpgwMDbEAT0T6+EqrSSfqW+HQ1ADFbxFfT//HqEXROn44N6hdfU4dFhLN1fiopKqD7p4ylvl3LoieSjJit+47Tn9koeXVdgL9D3Iq+fcP51LVDG4sOs1QAa+WWA/Ty3z+nukCAurZvTd+5aRx1Liu10vUHguIL7ss376eVbCYEJn9h37olO1cDEGY2/vmWcdRJAYGs7J0HTwrw1bHF+wIf0916EXXkb38IBzSZbtXWA/TKh2uFddS2JcX0w9smUNtSc93MpMPjneVb+f82sa7Zs7wt/WDqBCottpaghTR8+HpA9w7i/1cuHkrP/u8q2rj7iEyqRT5dCUC0fB3btqL7poyhcn7Gusodh+m/5q/hbtBD3cvb0IM3nk8lMWABz9JN++hVNnKJ7hJfTP/uzeNiRYn391Zup/9dtlVYVxjZryt9i1vIVK64sEDIe2rmQtp1+CTBqmtLdK4EICoyyCj8C9v5s5xYvTXCj3LXhwpHUB2s67+1Uq5ZG2M+jvAHg/wtuBoBUvS1J87W0VOzFot4ddxXx8YvQQfTHvh/8AR/xuHVT6xkRT/N6cCh25526XDCV5bgkIeHuUV96IX5bNva3KwVMS3njysBiBbrJG9jSqCInQJrK5EjzcYGdMdBx/UtT/IKrAiwqlv0MGhkfINE0MpJSgxOsK14mC1sWYNDxHOYiT/ac/Q0Ld+ynx7kseHogV0Fd2mrQhrRrwtVskHMluia1QgX9Q7QGP9VvwxL/YxfiRICiI2RYcAvmo2RCXCqDt21+M/otfyxRMyAIDVe9eMrnDCKhPGimqNeTfCtO7VsjelvFi0gWo7zuUUY0bcT9ShvTUUFibKtVlu02jDhWLH1IP3t0y3isMDjX7skMyunEM3g8fMSC7rR9V8coYVsIb+2PshdZXRa2b6hdRYINEGOGTh+fDGYzzaZvOBPVJN5kTlkAssk371uNHVpH1musJO5VdsO0euLN5OPmyD0kDDLCwPjmbpWPMFtW1pOg9l24PXjB9Mv5yyj/cdPZyomI3qAr6U6h3+7zqoJg/b7rxuVNfj+XrlL2H922ropusuHeBmnY7tSsbzibOndIS1vW0DsElw9pq9YsJVVUc8LtQvX76Ot+0/IIGM8aL7xSVyafuk51Emu13H4W0u30Udrd4uvnPPozuJzyoNW9Ps8afjpywucEukqOXkLQFTsFSN6W5WBXYY/zF3Ns81qPouG0ZABJnRPElY4CAqQSjfr4420cttBwslJi0hGOvgsa1PMOymdadOeow5KdYeovO2Cu3dobUwZzXr4cM1uOsFfocRMUa6pxT7lLBTf8vjTvEoG34GcGRXv3Snrs5nuQFxMKfMWgLGfuz9ZXSeWL2LyH/WKJQ4s2D73XiXt4K20XO6jlhSx6bGo3OiXdDSQt11wOpmPpQHgnuXDA/6AYVi8Ufvd2MT1uy0N5G0LaKs0zISjVWgJtWseGmhxAGweate5lBrQAJSa0M+cawCTRg3AHKkd+9dYWsJpZ+0MDbB9hb1aGzlAA9Yq2/Ae3sN8qLUt9vK047VcL/nC9PsWNQtOt15hLqyWz/nZ2QtONw1JhzXJrrym+QMGH1q/dJZqxHlAZSJVw3kVE6t0mGXCefxE1xsOhfZ5AsH/dGUL6OVf30o+St/YDi1fv67t6We3T+IDDNJASGIUgR73Qm6aMMQ6+QLqPUdONXZWcyhfmIQ6FQzUTZw1446jrmwBcYjgo7V76JJzezf4LrBTNYG97HN6dxLH73HXAw7rlOf17ULVtX4lmcgONQ6fXjVmAHXjawDSneTT1Ou/OCxfm/UT3S7bH9rrC/gvmz3j7t0ojCsBiIKjW3t72Ta6bdJQvDrq0JJNGNaTvn7VqKg1SXT5d105Iu20sKb59OzF4sITuq3m7XAMLrQ7VO4597UH7jwry+JaAEIBH6/bLSr3xosGNbihJhWU6RMt38RzetHdX0ofaPHSOHSiiv77gzV07Extyi3IePz5FAZr+aGAf31RoP6KVx642wIf8uhqAOJQ6goeC67afpAuYdBcfG6vyNXLDGsQF4jQRt168TC6amz/DLkj5Hv5LvK8FdtoNecJp3vQ8CUeNUb48tkXDAQ+mx3cdCHNmNHgZlXeAhBH3VXXuayEgl+ExIlmNdwJP7q6v6/ZRfNX7zTPDbJU9KOmg0+O1ESojOMXg8owgIZu8u1lW+iNxZskq8FpEIkweRHKIpCyQMl+HPlnI488XrQomq0H34YLBvyLQkHPdfHAh4LlLQD3HTsrThnjyBXcNWP60ec7j4grjlEDKxGb/R8c85K2dQ2QRWTiXcFJVIukYEswgE49eS34jCJY8RHJECxBjFDeGcBAXRDEShaBzepPwB+YO/vRr96QLNN5C0Acq5q3Yid9edwAK/8P3XwBX1s8QIdOVkeOwCsViHOqn20/RLBmgPW3Pp3bUs+ObYwKVemYcPnmAzz+YzpGyJCeHakTX1CXVY4nr1SJc4eLN+4VCIG8sYO68VjRuCAkMmUQCr6lTAdZ2vEPkL8NF6jzvxEKbbgjlT7yFoBokZbzaeaR/TpRny7tRDnQskwY1iNhmRZ8vluciAYQBnRrT9+6fnQDWmDkDb6chMkC6IbzUsk3rh3VgA7d8nPzPjPNCXvo8hF96NZJwxrQQc7Try8RhoVka92AyGUBfn/df1c8dvs/pFPsvAUgMo9W56UP19OXLxxIYwd2SVqeOXzd8tON+0RrddHQ7jTtkoZggbyZH28g3JBDrziZQXXjRYMbyIV1qxffX01b2OgQphY388Lw5SP7NKCr4vW8Z95awbfizojWsgGBywLYCFMxGwr7TcWjtz+UbtHzGoAoBLpTXKdctGEfXXt+P9GtwhSadF5uKSs+2Uyf7TgkFnonMPhumThEtHCSBk90ji+xZarNe0+wP0yX8SL0DeMHCTq146zn9H7HoDp8qlqM+26eMJgm8ezYzy2d6s5U1dG/zf6UannnQrd8hma8Hu/Ts3429VeqnlL5xfD4399cJepAztCsCjHHNGakJQvBclaIQEFm0uKdGxrTGR4pV4bGjpUsVvZYfikBYeyHjABb8S9iS1WFvKBrOIMe5tMkKEv5Eje6RRmPp8HPi89MJ8HSmo0Nwb6LjBdE/IKbdXUMKigGfG14dwLpYv/YCIPNmJAAZMj8qkCsLtTyqn6RVsMCyqQRLcpvas3IAMIkhclrxBu0Bo8MwVskXCoT/BaFqU8ZoIYLXsFvhEodqGUQMSzDNFL+rdmPTv8T+Ow60QKGWbt80yzSrNiV1oh8WOIoLEDlh0WrKGsHdSLBh+SrGWQIM5zhMZRmGPuRiq8SdGq8xWQs/ELJLATdLGKiKiGSgBRnpueeB3TDhVf3FG0VXoDO6w0va/5bPbbKr5lsasDL5lH4dM9Km+wWmwBgOOx7pmVaHrHKqT0OaoC/+0v++rrNM386rTJbsQKApa3avsnf0vmcv2adrTzN7wIN8IitptDn+bITRRUAfHDK4Lq6slPn857dSuwy6O7YCdW2MBkCF2KXhpcRwtNe/cm0bU6UUAAQgmZMnhzo2NczkUeW1/As9R0eYNY7kYCW0SI0wJAIrWNMfK+oqGAYz3znOlWq/wexZcAZpxfkpgAAAABJRU5ErkJggg==;" vertex="1" parent="1">
          <mxGeometry x="414" y="441" width="70" height="83.13" as="geometry" />
        </mxCell>
        <mxCell id="R7s_IrtqFpmnAKjUKmlR-5" value="" style="shape=image;verticalLabelPosition=bottom;labelBackgroundColor=default;verticalAlign=top;aspect=fixed;imageAspect=0;image=data:image/png,iVBORw0KGgoAAAANSUhEUgAAAJQAAACCCAYAAACgs+FSAAAAAXNSR0IArs4c6QAAAERlWElmTU0AKgAAAAgAAYdpAAQAAAABAAAAGgAAAAAAA6ABAAMAAAABAAEAAKACAAQAAAABAAAAlKADAAQAAAABAAAAggAAAABWF+mlAAAhjUlEQVR4Ae09CYAUxbXVx8xeXCqHxANFwQs0imLUHGDURAyi4M4e3MZI8v2a4BE5FmjYZcEjGI8cogIKe80CaiSgxgR/JJzRoBgERRBRlEPk3N2Z6e7679VM9fTs2d0zOzPLdsFsdVW9evX69euqV69eVRPiBpcDCeSAkEBcSUc1SFktf8ezt59OZB+hdCihwoVEIHLSCUlNgwFCyXoqCVVejby+eJpvV2rIiG21zQpU4ZwVvTXtxCuCQC4WBFGilBIQqti7O9lTcPMC/KhOa3SBvnXs646+VU8PCaTyttukQOWVVOYC4X4iiO1PiJqQFkEUQbD0zzQqXF+dwt6qzQlUXknVUngnRxAY29xQjwPQW0EvvU8QMi+rmDpsX73SpCTbjL6Rqyw+X5I9i0VJ/p6uqUlhTptrBIZ8GP576CTwZ6D99lTQ3yZe81HFFYNUQVhBiJgDr2Aq+NSm2pRkL9H0UG7lFN/SZBOe5gJFhcLZS/M0qs8BxhxLNnOS1h68IzBa4WhxluTxdsAeGPSh+JqndI92SLyg+glfbXyI7NVO8yFPoKHN/mqSK1Tbu622B31g61ahG7lY1EhooEDpHEkSvx+PUAmSdJbYVRsJnHg+mdxI8x4qmaxIr7YKS8oGUiLNJaI8mOqaI+LQiiJqWrcKpfCgIwQOKsG82w3pyIHyopEbK4ryr6ea9qIoSo5IFEWB6LKIPVTSOo6kNdQSR6a+uCaPiHQYvFO9wEgpGKo3DesS1KSMx2gX8BpGQIwmuH2TEnizKX9noBYgjdYNt8D+6kZr4VYiCKOwgDoCYqYDwZhBlbccRcNydE5IOMVR1KMXKrH/VNOJsE0ShfL5v/7Zao4S4/yS6ieB8vvMeZavBRICbvarmpL/seU6cQCmXKCUhRtPV6XQGkEWz9O1cNeOD8l4NpGHwnMwaZThjSOskRG+4GlWxygLP3wjyYEYCiOX4TYLiXEdAeF0RJqOESgDFgshxKSRznC2QW84DX/Z/3AKTCNEDdb9Teog3zZ/wtAarDJOWZ1ZJ329Ewy5PSMoLEdoSQfB3lpVlHeJ5UpxAPLXNw4UzqtOLft7L80T3CLIgiFMzrGdHDU1NUREyXOjekJbn+v3s7FukTK4TqJiruzNsH2TKNSy7Lk4f3bl3bYrO6iQMoFCZol6xptUELrGM5txcM9pXwWVcNCb+nf+MquSE1s2Pe9fWjBQxtN2YhRS6AUfHqcszLRTzwlsygTqgmDPm6ko9DH6fyfUn8R18CWjVB869tGXz+O3qYt0FryAjqZ80Ov1rvNkP8xxtVacMoESiLgQbirlOlxrMTYReGEZJQPWv+dzXEyx1vRnYfmJZ1mO0VgqibKSV1xpCKjlyjYAUyJQ08vWPCN6PF3d3qn5JwU9FPF4Mq8f9/jLozlk1fT8e3QttJun7cQaCBWYEkrt1LELm3SBKvGvPQO67dFsXLdLbTuE19QggYek5M7zZ/Hb13WhiF/bjaF38+UWL77Abj2r8EkXqICqzxNFsZNVAl040AtA/+lIvXdyXvin5y0BLXsnmgTsBjTNSERebbeeVfikCtS08rU/ysjM8enxLnxavbuTBI4tvYjyM+NLV3bjtyRL4k/4tZ2Y2cYEqaevpOqXdupZhU2aQCl+vxdeqHmBOmars0qfCxfhAAqV4A0+BXon65aWTPbtAIMlTmwcBPCbImSWg4otVkmaQKmBs34Krt9XtEiRC9A4B8KW9ty7n17VmwPA0DUTJCNsYueZFmMwdnYDY+cfLYJbBkuKQIV7J/qy62lp+bk0CoibMULB4Ou8sLxoxG7osO4DHyqeZTkOT4qEuwpmL73UciULgEkRKKqd+TtRBi96N8TFATQjiJJ0/tjHlo/niKqKfM+ooaCzhV9KPDpVp3NciYhb/SErS9Z3gmXRX7jLK4l4XOBzALM0UZDqmQ3oLBA0Rw14PBkjCmdWDXZUuZFKrS5QuqgtlSSP/VXNRoh1s8IcAI+E3mMee3UG50dVUX6ZHgptwK1UdgP0bkSXhDKzncsuDjO8fQrMtVu4nl62fpgkSTe6ulMLjLJZHDZ2UmXck6/1Marq2cNhJgirwE4C7Sme0POd1Kxfp1UFShT1Ga7NqT7LE5emAd3QfyqVYXtBQa8Axd1RA2DSeToR3gjOWrdAslKxbhz471xuAdQFccgB2eMZNeHRpUYvlaV1nwCLdY6wwQQyJyBlVziqbKrkrHUTgsYuleX/6g5up8+FgindZt8YaSdVHo5wdVR8Mzc36ohHg8ExTnQp5i4jkCEFpUsvjIdJrSJQJCBMghUo+z4W8dxJO6yLQiCIQq/sATJul2JB6ygtBV3KkRkB1ga9VFfBf915SLhAlfg3nwG7Fn/jnCS3pi0O4CqKSB7jdarv99XqVJjoybDvnInrfJI38ybfzKoCjs9unHCBUrW6ldDlsvUmu8S48M44AGaE7qMfXf4nXts/LW9lKFC7wok3ArgZg3eDMCdX8Xfg+OzECRWomRUbboH35VLXiGnnEcQPi8so8AbfOaZ0eV+ODfImQo/jaBu6KAi9PBIxnPo4TitxQgWKivRRK426MInnAOo/RBYMY2e1MnoHrBovd7JJFJd4BI/8x5HKStt+awkTKOidFDDjX5x4VrkYLXEA9R+Pp3DMY6/cwOEvUn1jdF07wtN2YjRGq+KxBdxdxmrdhAgUKuKCqD3smgmssr114DRYRoHVvgX3PrWSLXUpigD6uejIkQ4VdEGit+bOrLa1qSEhAkX1AGzPkTIdeKS2DmfbM1ZKzjpUU5PLWdC566Fl0Mvs4Wk7sQB9nizrr9qpE7dAKZUb+sqZmfey/dR2WnZhW40D4HfwHMzSmJPU/AkTQoLkzcNDyOwGpkvJ3ovzi/0/t1o3LoHy4+5foi2HvfhW23PhksABOBsq05shvcSbqpgyfJ2mBhbxtJ1YxxmkQKYoimJJViwBNUXAdnLOjWCqvZg5vjcF5OYnnQO4IA+WwFvNu45DdVopEOLIGwH2UPb+WLroISs3EpdA6VQvA/F1jZhWOJ1kGHgsWeCMh2dDsbCsZOQncPEknu5iN6CyD1sj5hYWRxeim8LhWKBmVa9/zOPNONXd/dsUa1Obj6OGnJE1aGTpsjs4JZVFeQ+BwdORgo47ITRRncVxNRU7EqjZr67vAWf434Xefm5IXw6gbiuItCTWG1Of6pRiOBshv7C4zHCXaQyPI4GiITIXfJi7NIbQzUsvDsDW8wu8QXEUp6qyqGAxzMg/ceKIB58AgRMA5TeaM3baFqhZ1Rt+IHuyxvHT5jihbpyeHIAzOuHAMXn+OOVlUwdAfwzHAdgmGM0IsGh4LhzReGdTlW1h9fvh20dU+H3INRM0xc+0zNfg9E7Voz7NiYNeag8cjL+Ip23HAiluqo4tgdouvPtjSXZ3/zbFzLTNBwUdfKZG3vnIq9/hNIrUozidnoO60zN/dkWju44tC9Q8/9osQrXlsNjIaXLjNsQB8BkXgnpoJScZdx3D+PWAk13HbBcTFSbA4WUXcXw8tixQdaI8F073z3GNmJx1bSsOuwuLl40sXTqWU66+T56Emfp2nrYXg/MxEabVr2NJoOb6/90ZOs27XGGqz762lWZCRYghBNXVPk3UtRInxk68c8nrLSgoLf+RmQuWBAparYBxM9tcMdnX4EUIZ0SGf+hhzK+txk3VicfQjy8Y6iFecG/MyfCQjtle0jkng/06ZWeQDllekumV8RhCmGnDK5kGAYTgvMLZVcbhrRXTC5doIfUDJ2YEtKBrquS/+9lnDfN7iztTSpeuHwK2jJvxfMZUBXwWg/qfRS45G4/ljB4g3zI9ULGF57j9y0Pkrxt3tIzKBBGCWVMmCNGg/r1I/3O7k1M6ZJKOEeExgZGQqpMTdUFy+EQd+fiLb8jf3ttFDh6tIV5ZMoMl9Tq8jCLOGVtcufTFafmfYuOiFrpdFz1b4dL2kQFgfeh+7ECXQqj7IuJqUaB0QZxBUyhMSCQGfGhnnObIbz6MoIm/3xyz7imBgp2d6SGDLj2b3Hzl+U1gjGZ7ZJF0Abrxd06PLuSmAeeRf27ZTV5d9zE5WgObAVK0DAq9qhAUBLSY34nUlisjd/mKq5ZDb1/gpCeFOn+AvYFL2BAavf2GV48s//dYcOsd2LCk/eWEVI31RkUF37ckTE1x6IfQqymjf0T6n9O9pc6zKRQJyRdlz/jRjyznszTq6Rxy5NmJxMAIliN+ly7Ba1QBGg1zyj44RcuoO8TeItP4b/4gDss2leHoEk5GhiVzGRt9ouNPg7rRothhDQARdvi1fchVfU43aD1RFyLH4dfYDZhQGfDhi4YlH+35hvUYHBAhzG8pH2IH9z+bDL+u4aZaDVxFDh2rJfsP15A9B46Qb48HQFAoyfJ4yFndOpIzu3Yip3XOJh7wHDMHxFtcvoZ8fuAwmIjwGDoTbXjPEWC8dwxmmsJplomXRt1oHbjiCVaOf6IZ+AzxuQLO3eVTcs+BUhbySqvHA5ULHO5aqgV8/Zsc8mhmYBJMC3lbaRev27aXvLl5N4FRxcSrMNM479hjifKRPRQjGQEyfYiq0XvUAGBg356NCtN/duwjr67fDjpSgASC8BVO81MEbDrU9QKBnXMyydCr+5DvXXSm0QY+0El515LJC/5OjtUkf5EdBRSebq+Rs/2FZVN95UiYfoBWCqfpRdDP9DYItXgBSn2WQLUhsa9NpHLpyve6QWOWHKostpdwMBQE7B3wgcfzq//mmwlF4et5Sg4Ze0PsqYEoPPNX/Yf8YcUmcuBIDSjf+G0W2MALQmL+4QwUacMe7LlV75Gyv2/BL0MZTaBy/lPQxaI5RlHSLmDDlLH1DT8nC53Ib50YO/Fl0sGpr1GBojXam+7uX5ixgECMur5/g4c77+WN5IPP9oNJwJgtN4Cpn4HC838f7iZl//gwpmjQpb3MXWxMWTISkiyfUVjif5a3VVGUtwyMna/ZnjCwHk+4pIFAlb6yCcwE4mXt/Vwn7Lm+c2pHmJ115rxm8fOvbwa954gjZQB7r3Vb95DDx6MzSw8I2vf7nc16spiGkpRAn3HoXcaPmvNqdNpKKe46tn90DqUdGwgUpeJjgCx9lackMToAw9ht114Q09rufUfIFuiZ4ND5mHw7CbRhLX3no5gqt4B+ldIXWBA9mh6cwYmqAvsUOKrY3nUMn1zZF8OZ0mWbfpvhzXR3/wJne3TOIef3NLkQQd6qd3fG3ZOgXrV+25dk11eHyTsffk7mr3yXlJS9Q7CnSl0Ad2FvxqiCEv/3OQ20rzAaHAGO83RLMQ6R8DX3DYZAlby2Fo7hIUXBgKPzFVpqr02Vo5J8ZZ+eMTQHQhr5z46vcUtR3AGF6pHqtWQxKOn//uQrUhNwtBklbjrMCNBdGMalxXzXcbXPp8Gt3m2GafYaBYro1YZASUHvRJj6dWy2UjspRJnpXa93wl4FZ3KJCs3NLhPVhl08cHfn7Dt6bDivl6F2fxlmDLstvUW6frhOU9cygZqzYlNvb2bmA+l4k/zmkhljD4JLPeawdfdBtiBtzjsZrwWBvsjvC791DI4BBS2dCg6WcvA1p/NfVsbsl5XVq2XhsOAPEftKPW84FfHlvbuTM7rmhK3MTRpyYgvMKZxxrf3oC/LBrgO4KTImYE/UITO6dRvrfQO2JKxT33gZU/EkSEiwq7OguHJBxbT8O/F2qqcUrssrrnoFbv22pm4PPwgJZ6UzDwbZeyT7GrCMXtHWeqdunbMI/uIJ28EDgN03cMscUBvIAG8CHlSYmaER1Wpg2GJQYsIszuFUDAgoMOkgrMwbUyC+/JKKGeh7jvcM/FgIFA9jl5gRGyjVyK94FswtpHvx5E/MdUOYAyhf4J1qsAOXUPBnJWDdoVf3hd6znjpar3o0CVfw/y/rPya79x+20kSrw4iinAO7mtAl5RFsTNSkD3UZP61Oot02JNh6oK5trZye/3rVjHwEJTK8eDcIgvW3j9VKgz/Ya6BNJ+Ytj9AVfVhNE4rfMsLdII0igGq4Bw0+fckCCol1y7FAzj29C7ngzNOabrxeCa7GrP7gs3q5qUvidikgCYc4JlDHyMGvc2hnYHYst/H7MlpI+xnwxmC5DEssp5hWV1N3FzZbXr1lDywOfwanAOKqOa8cvmB/4Q8bQiJl4TzToAKV8B8KVv3hHvGFYD8bemJiQBhU1NtLQF5BJ9Od3+9rM+6uzS+uavD2aqr6VKVS8BmHw1gGV4VakLD4lBEzxiRd40NnQxGMTA0EiklPrEAhWSg4kSJzpQYU4wJuTUAlORHFHJV0dOU16jaoEZuBdqWwB0HjNTA3G1yG47G4x7aY2BS+OrBYYhg1Rz++ODskZtR/o2o1Wfhd/ZbhBRfWwu/H9d/S+oDtKY2CigLRDfyYeMBh7DNYeoHOqtmAfFz45vvhITIq6TG9oAr4J9x8BbnsvB7N4kpZIXwvhor633j7VM0EKy81ZikyfFwsFAoWVU/yfc5heAwzYf3PPOHGYQ5gD/XVt8YLyjIHnH86Qb3NSmD6HawFBk0/dHHh6RBY3c1uLFZwJhMGvsSgiYL+PG8zqNJ+cG24VqhqcBt8+HEeLzfHoicY+issTLLpobmgvV+/v3N/DAuwhzL3WDGFJ1ECRiu4G+HtiikF2/ltgZY6GjMxjeVUaPoEF/F+37W1MKP5JZz1xOu7MXBgy+79pC4Ya0pBr8vGtaKTh2Xox1mjamNAdNitjigtv9DjzWTLMeyjRLq+uWpK/vKm7phpBFPuuGplMBjwh6WzKdD2lS+BslT1z//G3PQA8Gk/tUObm7/E3ENzCdybBwbJB/6iFOxFOPzKlVcXX8EPPmKACZwua8GfsEQTf0wqpjwNKqR+2bsJQpOdjWaCLbsPsCUX3jbOyh4YPpDN0Ez6Ni+2FKPSji9uDmzHSrcA9qd9GTmeBZwucLP8GVDbNzxhgxFPIH9aDOt1vLyx2BCoKcO/+zG6LzjdltwY8raeF4SNmkvXbIu5DdxwMMl3LekMO4PtLMcgEvQvx/ozR/+Q9LVh+IwhoJUSsjcT5EX+7aKJtxvmeuivXoDmwroTvGB1oRrYwNB8MAQKwaYOv+rnsLP0m+arpEcpTu1xNsUt5vzaHKMlnaf5Ncb1f02ZTJCT7336NVm16dOYm0ZPhNnjBrEllu5dclgbKFw4c+M6FvZgnEbM69W9Mykc3I88etcNpOdpscsyqAfXgd0rdUEgcObXuvKpw1/iNICz3e9g7x4z96M3AVXV8a8o4w1h43D14wbbqCgRHwQrxAJgApPM+hXSJX15726k56nZEXtPLFX8ocKo36CgXg6s2QlkJWxF/+rQ8TCu2BokA1Y7V737KTun4Af9zoopHXLVeeSmK84lB2Hny4bte8nWzw+Qfd+eYAKWlSHDvrxO5NJze5ArQPdCI2lj1nYU+Ef9a8mufd/G4E5uAg65FLSJvM2RypIzNULvwq9cYYBjCDZ3/uJoGS9vLm4gULsP0rJe3agCBqpeTb25zSFMVlkP2N6Ev0SEd2AZZy9FgWoa2+J/bCFfHjwGfuZ9mdWcQ6JedfqpHciwa/qyH8+3Em8Epz1U/I/Avj5c2akv7FZwxAvDfJm04FtgJtjAcamyPAuOTOyEGz5F+AKDFqhR5s+fYEm/jhnyEOH8CVfCiEBvQWto+wktP8pMj8z8pyYvWk3e3fFVXKz5BA7omLzgH+SFNzaTY7XBiJ9VXCgdV9Z1Vd8b6nErR+ArrbrO48kcj8KEZgL4AsMbVTNGWv7eS4MeChFPv2Pgf0uXbSyHUQ9dGNIioJW5FjZYNrAwtywLzdKPB1qgsmx1gMchCjd5nnnap+RysJ5fCMo1brVqbl0O6+COmW17DoJO9hXZufcwbEqAd7m5LrFZqhNXKFJx0tvKYKbA4bE8Rw/QP6p62NkShOqER/CMt9NaowLFEFC1GL7ClxYChXxfAYrxaxvDyjE+fxZwiEJF2FgRCRewv/AHvswOmnEEFgYUVJRZGdYzkGA5aI42Hi5u2tx/5ART1ldu2sHW6bp1ymY+UKd2ygIvUkYW2zG8Z/9RcvBYTcxaHvdiYLRg8ykKsAB8LKdrxh9488cPdrkejk6EL7JqIOsisEirXDJ1hK3uGFnbZChZtmm215sxJRSIbkw09xD4gNhTimCIJiOzHQYQLgw/zCgLG9SNFjHmG8kIDj5/CuMxkQwZERAkhhXwNKtjIEJSORYEjRaYdUXMjUlzuAi4CQNDwWExxp6Opxkh8Ad1I2YwNrUdixIQs/+RBrBiY7C8UgQxS0byOE0cA6OBJxBdBGekKuvlYdsUUYPBW8qn3MHO3cxV/uuVpC3gDy12itBT073TvlOfvu++cHfFK7cQN9ChzPBFI66aGgrW7jbnudeNcwCFBmdxOPTxH6bTdfUBhOkNLkx4R6K45QnonUCYwJSJdFO9wK4wMTyNsyeaC8N/CXrmueHk4QD7DrGuT+d3VKCUd4URbiw72B4ywdngo07d+6zi5XbiZnsoRDQ99+rnwXF9F46pbmj7HBBwyxNVq8qLfBv53VCP9IIAfuSYxpNXQIe6B2f7vNxObElKdFW6kQ3sdjC7sGnJARCWg6EMMp4TB0chDpEkz62GIh4MvOSfMXI1L7cbWxKoorwBO3WN+tNhmmv3Bl34KAdQn4PNTfOq7/fVYm4u+yIrmcUt4jDkHYeZcYvrdVGMDa8sCRQQQgVJnCi5ulRDDraVHBQmqh/sE9rCdrIg2fI2WiDK8gC8RqcAmB0u5HvxMM9JaNZsUB/h7KpNEwWPOI8fMW2euiIsTk/DM9nIRDYyrWVlUMintzwdAcak+RJvLDzVNRXwHESJ7RgBYY2M8AVPszpGGbbBsUBtDsQuo0B4hXA8GNeRLBMGhsIor1cP65vLEJhj5ejDafjL/vNSVrEhLK+EiCGwZCSPY+YYWLs8gbDww82r0DFc/dLDtzPdaeRTSzqpR72H0f8S8UE4CB9o7Ba+dP7XUg/F0WcJoT+H1NBOnnbjtsMBUMTfeunh2zZxivWj8kyQJC5MlEjC3bwsntiWQKG7sCzRYtkbs4E0nvbdukngAC4AC4L8IMgP67cKHi/vCtam/8W+i+lVRP/k68DW1xJBii2BwganjrhmkRoMrGH+xYmgwMXRqhxgvkyaNnfJpOHvGw3VyXiGKlt2k8BirkvSLW8rSkIcsmwLFBIV0LRxsHAYdjQ2qHQv0pEDoO/uI1JOCafNV1I+FAa6y9GbAIMaqJ1fPdm3g5fHGzsSqJL862CVVl/h9lLxsr9162PvBDr3E4sf+skJ3pJApdnRyQJ8QJaKc3lZImJHAoUNe72nYC8F1lSu1yWCHBdHojiAuhGscHy6ZPJww0yQX1J1H2yX649toEVc0MXZ1dN8uxLVJuJxLFAPD7vwGFX1XyDhbkg/DkAvBEty2h2cstwS/xlwPVcNhZ0H8MOLFdN9M3h5omLHAoUE0I6eauil3F3HiXoaCcITnrmRt/uGtn7AUYpUR59xtqmQ7b/T9IQLE7YVd/cys3rdzRnenJXBOnAiA4RhW1vE1GYyxuElN8Bhw6yoXjnmY8AxHnGxEIHhOZg0yhAAYY2M8AVPszpGWeN4wyiiQHgV1TFM1xEQTkek6cZhsRCCGQ8SyVuJ0segABD/81JW0UgZsPwCq0BgyUger8sxoB+4XKud/vzUYfsQNh8+Xg1Lwl9CrwRmAnCc07XtcBZ5wy8hIXCcIa4eCtuekXvNqmDdib+4Q1+cTyJB1fE5aKG6Ii5MRFFEGqxdAWc5sRZgJAR5Ct6UoOYaoIlboBCjTuWpQKgtz74GlLgZCeEAeNQeFDTROFEnT7oQTigULoPnE8ZPyQvVypjPE9JYI0gSIlBK/lUfEk2okqCrdUPqOODJyITzMOnUl6YMj27WFYRnQbNhzxmHREHUprUmhQkRKCRweuH3xsIMIvZQpdak3MXdgAPBQN2mFyePmM8L8krK54AXwTmooTGLOdXvrphayPQqDpPoOGEChYSBj/79iSbQxWeRA6A6gaHgNxy6YEo5HI8n3YNfm8IAFvOtF2vbX+DlrRUnVKDE7XUL4WXY5yrorfW4GseLKxZwxteaJZNy1xoQOeJUMfKpFdwTAM4rsxRFiShSBlTCLxIqUApuGPTKQ9rXruOEPxPbCGHiFtSysozdv4WP+AeKkvdeVMRhJwt4aWpvVRb5qmwjdlAhoQKF7SsjrnwP9vH5HdDiVnHIAfjG4fSy+4YcxeqDlNUyVemzhluvrtWpas1oh6htV0u4QDEKqGeG6y5s+1nYrwA2J5i51VIx6xleuZvnwGDwcvoupsOL97SyWhn/NS9v7bhVBEopvHKbTvUn3cPLWvfxMT9wQR5p9iaQdH05N7Prmh7KVGt/1bpUxGJvFYFiTXSrfRBmGLtjm3NTieQALKW89dJDQ+GbduGQN6vqCUGSOqCZAHUnWPvPX6SMj54jwAFbMW41gVIGD1Z1gT7i7jpunaeHM2lJpDM59oLHX+sKB36gSxHLAhPCR1nacXZuAYdJRtxqAoXEz8q/7k+aqu10dx0n9lGikVLVaOWCB4ev4Zj1QM1zsNGgC6Y93iyiC+SeZPdO2HarClSkgVtgfYkvhGOWG+LkgK6qR86rDY7laAqK/dd7JO9t2DthzxUM1ZT7p+at5uXJjFtdoJSCa7aDnfaVZN7UydwWCgz0PvMUxcd8+sFYCWeG0RL4XAbcNs769L26JP5PqnjQ6gIFrwyFj4PdD2c2puoeT5p2UZhANzp07oDOpfymPpIvGSpJ3mvwRBU4tP5dUdT6wUd9jvDyZMdJecrQS30GU9jfSDI4zbvBMQdw5iZKnptxwoNIchV/B0HQlqG3HRxrvegCzTewfPLIVB4nTJL2hMVg4Fn4pOFE6JV7OeZoO68IjnGrFz54u7H7V5Z0RaeCqmrBsfARaUvHPrc2C5PSQ+FNKOMH18HJH7MlT/p9kqK1mZwI/MyIKQngzRHe/Yu9E7yct8KngLunizDhfSZNoLCxkjHXPacHQ+vd/XzIDeuBmQlC6u/hsxmbeS1BVoee8GQNKFNGsTU8np/qOGlDHr9RTzYZFajVP4K021VxprQQw/66faEMzwwzmL+osMKcTpfrpPZQeNPTbr/uU+i0/8rOeUwXLqQxHWw9lNKnuDdBGpPKSEu6QGGrp3jOLoTF43TnTRrQJxBVDX254MHbDDNBGhDVLAkpEaj7fWfVwjz3l2hXcUNzHIBpTIj6moNIt7KUCBQyIdiJlINZ94t0Y0i60BN+2ej6XnWb16cLTVboSGkXMa1i3dWgS62Hb/SFd8JGKG73O4eBD+C+e1zSpXPnPzj0oJUHmS4wKeuhkAHFBdds0IKBwXC5n/nvtPMhEHsl5pmh0x3g8XpJWxMmfKYpFSgkoGT0D97O9mb3o1T7FayWf4jOYe00wKdi6BronXO9mZ0un//roZ+3RT78P7PU3w+X04wgAAAAAElFTkSuQmCC;" vertex="1" parent="1">
          <mxGeometry x="415" y="311" width="68" height="59.73" as="geometry" />
        </mxCell>
        <mxCell id="R7s_IrtqFpmnAKjUKmlR-6" style="edgeStyle=orthogonalEdgeStyle;rounded=0;orthogonalLoop=1;jettySize=auto;html=1;exitX=0.5;exitY=1;exitDx=0;exitDy=0;entryX=0.5;entryY=0;entryDx=0;entryDy=0;endArrow=none;endFill=0;strokeColor=#FF8000;strokeWidth=3;" edge="1" parent="1" source="R7s_IrtqFpmnAKjUKmlR-7" target="R7s_IrtqFpmnAKjUKmlR-18">
          <mxGeometry relative="1" as="geometry" />
        </mxCell>
        <mxCell id="R7s_IrtqFpmnAKjUKmlR-7" value="" style="shape=image;verticalLabelPosition=bottom;labelBackgroundColor=default;verticalAlign=top;aspect=fixed;imageAspect=0;image=data:image/png,iVBORw0KGgoAAAANSUhEUgAAAI4AAACCCAYAAACQP/BzAAAAAXNSR0IArs4c6QAAAERlWElmTU0AKgAAAAgAAYdpAAQAAAABAAAAGgAAAAAAA6ABAAMAAAABAAEAAKACAAQAAAABAAAAjqADAAQAAAABAAAAggAAAABzaq+BAAARkUlEQVR4Ae1dCZQUxRn+e4692OU+ntwIrgeIAgExMSExXhGVhwK7qO9FYzQ+jC/R5D0P8L19ySKJuYyJmGfifewBokFR4xUjgsolIsspIAILKPcu7DFH5/+ru2Z6ZntmumdqZ2e6qx5Ld1fV/1fV/3/zd11/tQKCQsWDteUeVblNDUMFeGAQqKAIYi3ZdJUEFEVFPe5S1HBNmxL655J5N+zmVRGi3Fnz6+7ygLJAAaVQReTI4CwJKIoHUK+tCnhvr5k34xlqXcbAqayuuV3x+B5TwxIwzoJLXGuY9VFDqqqOrXugcrMnLtnW4+zq+j+B4pWgsSW1PM2sqgoGH1qf+6gFaQNnVnXdfMXrvRttWJ5KQlbbrgTQ2oCqqDOIzmeXmPJXVNcvxnfcdeFQMB1ySZPHEsDucjFV3xZwbqp6qqjF2+1Zn89/XSjYnsfNl1XPVAK2gNPiLXkH+0jfkaDJVOz5T28JOLPnvzhADfve8Pp940LBQP63WrYgYwmkBM7MqvoC7BR9BIo6QoImY3k7hkFS4Fxf/dIwFUKv4LipB075fO2YVru0IWgA/B6vt5fX54NgAPuoGYyIM54AdKkO8rrZFdW1M3Hq92FFVQam05DaeRU4lyyD6yRQN69yUfgMz1BQPL/3FhSl1f4OFmdmfb13NPQrLoIyb+vJpg7paZUSR3Qs7lnIoylT00jLxXHqnkjB7y0Tp5PxuFWi5LWJT+0GA8LdIBQcCGtbq6qqYtaGKqtr/4XdkFuslkz5yOLEAGPB0lUT1ZD3QXz3jcG/XpSJzQsbJ4fxnpZMKUpLC1E2Fmh9M5qVZWTxYXarpdD/2qtVewZDMyg+dpFUK4eYUFokK8vIWFMKu+FrqxEK4sXTKIdWaLR+hmeaEeWB3euPOmeWxIqM5EPOURLGO/ZRp9QjeT2o8Mg9q5K2hYDkQyG2HhRD6iEiotIzYZSqCZQysMDkYqgQLihFFiFZtKoGMOIw3m9VlfB9dXMr13Ha66teOD3s823G5wIel+oaA5wFS1b/pLC49InWlpManV4Rvbpa5XkD9UbolYqUwwVAjWVZOQ984A3Xoxg/Iow861zCPILTGsqK1IW4RVHEKCNklF/PyBXBHnkGKpMoIvzpVidg0ZyYs9GeKYtpPiMN8cXA83G2vO1a1TqWxXhrhIw+5lZnQjwilBjHebO8MQT4A9MTCXb83pCvBWPPrJ03ew/FUZj1m5o92GkeHMNUSzL9P9LH+d2SdefhAtbjbRw0ptllpBMk4PF4i0H13GNsi9fjaaCtE3aCltsD9yoIOTuEMm9+SiBMplpfqOQtwBdbxH7zuFRXbR5HVa/m5jUVgUzPcwnQa0zxDci0Fdw+dcuUkaTPHwlgtyTjynLgZMxIMnCXBCRw3KVvYa2VwBEmSncxksBxl76FtVYCR5go3cVIAsdd+hbWWgkcYaJ0FyMJHHfpW1hrJXCEidJdjCRw3KVvYa2VwBEmSncxksBxl76FtVYCR5go3cVIAsdd+hbWWgkcYaJ0FyMJHHfpW1hrJXBMRBnGXfe016nA59X8DIw7w03yuzEqqQuw2wRCXgTkFTB10igYN3IAA04wFIbn3vscdh6w7PTkCrFJ4OhqDqGVGdynDH5+9QQoLY51Mbr50vOgumYFtAXkQVL8VyGBg5KgN9GYYf3g1svPA6+349u7d1kxFBf5JHA4avDaUUqGRDfchvC01NHD+sJtV5xvChoug76lJTHObTzerVdXWxyyND88fzhMu6CcdYaTgcCjewaQG1EA+z1+r7mnQFsghGl46rN5crIi8irNtcAh0FyCoLnqglGWFKZ4FKDRFgFt1vfOSUhDnetHl66GjV/ScUIaeqj/xByKVQXdeHXfN4wip14NkPmHMlcCh5Q7e8rZMPmsQQkBEJ/g93mgwO+FaReeGZ8U80xAuHTcSFi/4wD40DmWniedOZCN0Mj52+ABjnQqbNt7BL45fiqGRz48uA44PnyN3IgWY/wo+86M+MkBSzr1oHViNgYBWn3zxdCnOzvhNSHt/BeXw/b9R1iHM4SvQTptAv9pQb/hgPPpc0sJmWUpwVXAof7JnKnjYPgAOvGm88NAHN6nAg3VYmL5QNiy9zB2zhWYMnY4jBneH4HDkcPrqUBzSxss/nATnGrt+qOCXQEcUkF3nJu5/cpxcFrvUq4JW1eyVKyfYovKYmY0ZEEc3V0+fhTceMnYpEQXjh4Ct/7534AnTCTN19mJjgcOgabY74N7Zk6GkkJ/2vL0oaLibUDazEwIwwic8iF9TVJio6gNNEHZ0ta1k5GOBg51gmk2eM5V46G4IHtNJevU4U0Tq/8ET9agSWtoEjgJRJhpNKmAQPOraydlyso2PZ/zsU2YRwTZ+xlmUShkaUYM6AFzsE8jKtBQXIaoBBwHHLI0pUV+uBMXK0UGNhNs7U0istic5dW1XfNOEIsXNXzLZclHJp1QrClLa7M+pqQ5H+k44JThiGNAT/EHjFmd/DNqvD0YPcrXGO+Ee8cBh2ZdqY8jOhRiH8cuV7ZEJboiOcLPccBpOtUGG3bJ75V0Nr4cBxw6GHHxim3w7vrdnS07V/N3HHC4Nl9d9QUsWr4FtC0NPDb9q9nOwPS55T+lY4FDs7cfbWmEx5Z9KkRL2sYtu70cIUXnJBPHAoekTXMvtF3hkaVr4WSb/CSkSAQ6GjgkKFqc3PX1cXj45dVsy2e6wsuGrbE85M+BCSLHA4eAQnKmXXbk4nLwmP51HJsIooVFu6N8O/qlbRINu1OPBk+cbIOjTa02ay8+u+OWHBKJiHblNbW0w8OvrIZ7ZkyGnqX2vgyXzsKlVStFACPgLN+4m9Vx1KBehs8qaS2iHYAt+Lp959NdQG2xPamUSDBpxrsGOFw+re0h+G3tSvgZusOUD+7No61dUV9szSpFbspDf1+jddvReBRGDuyVkII8RT9s2IP7k3G7KSJtzbZGWLVlb9S6YZy2bRT/R6bMgwK5WQVlwoIzTHAdcEihNLP86LK1cMdVE6B8kHXwtLUHgf7otZUsHDpxCoGjsP7VQ4tXQu/SYuZOQ8qOKJw9qHCkuQUd/UIsP6HFi9bE6zG8FvX3I4EnQpus8CyluQ44XK706vn7q2vhhh+MhgvQCyFVKMJdhNRb+uNLn8Bl40dACa7AR4KuUQLlMeyDvL5qO7MMTOeYRkBikMF7o/ppX7GIL7lE6pHFG9cCh2RMv+5n8ECBdvzFf3fMkJRiJ2AQCF7470Y0DtHfP7uLPGOmONtAdFoXPWUReZPBFaOqZNooQN+nuuWbYRnONCcNTPlaDrISMX8YHX1OysUxia4HDmmSLM+yNTuYJUmk2eZW/JCuZjoSZXFVvASOrm4arXy8tRGefnuDKQA+2rQXRz5SXFw4juzjUJ+DrIgfX0Pk791Koxbe4iRX6jCv3r4fGg83wY8vHQs9SgqhDTdjLcZX2Tc0UkpC67YkxwGHOq1D+/aAGReV497jArbM0LD7G1iyYmvSY0y44glw+482w4K6lVCILjU0/KaREC0HRLvDPLd7r44DTjE6rN1y+Vi2YZ2rdcq5Q6E/bid96q0NEEDHt1SBdXQxE422qFvDQCNREyM2x720e3UrigENb+3ZQ/rAHej5QJvZZchcAo4DDjnuJwrD+neHO6/5FvPqNM7DJMov4xNLIG+AQzv5AsFwhz/yJAjgn1UgEHhokbN7t8LEUpEpKSXQpX0cWjNiE66G/gPzUGD9iuhcqx/Xhq4YPwyGo9LjAUJpBJyVm/fBpztTb0sgifRA0Nw1bRIsfG0tHMTtFvLtlRInHTJ0GXBI4aOH9MYTq4xGT1vJIbeSzV8dglO0aw9BNG5EP5gyZnCHyhsjBvUphT2HmoAOJrISepUVwa/R8vxt6RqkO2GFROYxSEAocOiMF23JRrck+gCWx/EJNBry3nXNBCgrNiwUGirFbr99Bjzy6jpoPNKMfZIk+XQ6D+5noVXrQNi6Exz5Sv1i2kT4x+vrYOu+I2zuJ74a8tlcAsKAQ6C4csII6N+jWAdPbIHH0d/p5Y+3Q3tIZfMrSUGjk56DI6HGI02dOn9CZ/vRMShP/GcDbLSwAy+2Ve59EgIc2ow0FUEzfmT/JJIsgyF9y+Ah3PubeNwTR245YxydzUfafXfbj86HmvcbYAUuLbAddjZ5uC27sYORdtupQ3ta79T+2j2xU0p9m84M2msxvRIqp4yG748dJswXK71a5AeVEODYaSoZkXaLHVg7fEXkpdHVjIvOgul4JG0mABRRl1znkXXgkEDih9S5JqRLxg2HCjwHmV7BMphLoEuAY14VQbE4lBdhLS7C0z3nTB3PtlKI4CeodTnDxnHAoZkgURbt3BH9YcFNF+Mpn6mnA3JGo1mqiOOAI1puRQVeuHv65E7v1Iuud2fzk8CxIOH+PUtgME4liLJkForM+SyOAw71RwxLX8IUkKUpJWH17WxGzgOOwD4OF/6x5lbcTtosN6tzgeDVccAxtE3Ybe3/NuG+5a49Al9YYwQxksBJIcgXcRli/c4DKXK5L1nIWlUuiY31cQR1cp5993NYhYcA0DKJnMuJ1bLjgEPN03b1xDbUzhPNGD/51mewDr9yR/5WMnSUgEDgWBx3WMxGVe0qpf3llVXw1cETzC+rc8ZoHRWRbzFCfk60LeGL/UdTtn0v7tAjlxOrIR2X20zeUs148BL5U+0+eFxuJ02hJCEWh3b0fdCwD7dgNkMf3JKpTftTyZoaqX9AG7m27z+Gu+wQqxatTjr9CpqkS4eO6ve7+pX4+cJATpx4lUJvXZ4sBDjUCtqTsxVPn+Kzq/xKaUyRCv9UsubodvDYKfzmQgklmwayTBv0TzBbxJkpHyuR+9Dld+Fr63CPc1BaGisCwzzCgEPlsXPymMsA2RxUt/7Tp4vxFUKuLo+9uR56lnQ8h4/lxf9OoAUgv21iZ+VjGpqlMZZiTQL0+eaFeDqXfUpr/J2aSyhw7AgphHuPD51o0RQW0Rr/gIfmqU2WhpIa9hyGc4f3M3wVJjpuojxk7Rp2H2auLvStKqO1S1an9TsOwvM4TxMpPllmmRYjgS4DDtVCN06GPg8BRg8GbZL1efzNz9jhiSwVgUKWSQu02Uphp1LQM0EqkqRlMP1/+cY9sGTlVkt5TRm4PLJLgWNH9gSGqCUxAoe4GKDCMibn/AYeovTGmp3SHSa5mJKm5g1wkrbCkNiObsLUNyouNG/aS3jcyYfoyUAjQRnSl4CQeZz0ixdP2dIegO3oXBcfWvGcmyfxmJP3P/8qPkk+pyEB859lGoxyhYQmDZ9/fxNzcTl7aB92MNKqbQfgvQ1fsjcazUYbXmy5Uu28q4fjgEMaIHDUfrAZ73CUhn1nck+X5+KIxaYjgUMiIpdk6kzTGiWzMNFhmFgJupSb4/o4LtVj1pstgZN1kTujQAkcZ+gx662QwMm6yPO+QOYXLYGT93rMYgNojUiFT6hECZwsyt0RRXmU+RI4jtBkdhrh9flxKVmtrZ07a5kETnZknvelKDiDGg4GFtbMrZjNGyNfVVwS8moqAZ+/ED8sG66qmVdxhzGDY2eOjY2U9+lJQMH94YFg6y/rHqj8azwHCZx4ichnJgGPvwAXioOz6u6vXGQmEvmqMpOKq+PYPiU12N4+ve6+maagIfFIi+NqkJg1Pgz+IIx9rqpyo1kqj5MWh0vC5Vfax4S7CE7h34WpQEOikhbH5YDhzQ+HgsfDwabTF1X9tOP2SZ7JcJUWxyAM194q8KVHDU60ChqSk7Q4rkVLtOE4Gzwn+mTtjluc1CcGWOMnc+WBBPC11JxpNTXgKOpimuyRwfkSYHpW1aczbSlDSyAY/IMaCge0jnWmLCV9zkpAUVRcPmj2e/0PZlpHBpwHZkzejkufN6phtZUhkvZdyOAgCaBrNbl6hNUWRQld+/zc6/Zn2rjI++ne6RPqPRAqR9eAKizgCxzXS/ejTKWbA/SoRPq3BT0+7m9X2kbVzL3+7RyolqyCWyXwf8Bv3o0IVcuqAAAAAElFTkSuQmCC;" vertex="1" parent="1">
          <mxGeometry x="274" y="591" width="72" height="65.92" as="geometry" />
        </mxCell>
        <mxCell id="R7s_IrtqFpmnAKjUKmlR-8" style="edgeStyle=orthogonalEdgeStyle;rounded=0;orthogonalLoop=1;jettySize=auto;html=1;exitX=0.5;exitY=0;exitDx=0;exitDy=0;entryX=0.5;entryY=1;entryDx=0;entryDy=0;endArrow=none;endFill=0;strokeColor=#FF8000;strokeWidth=3;" edge="1" parent="1" source="R7s_IrtqFpmnAKjUKmlR-10" target="R7s_IrtqFpmnAKjUKmlR-4">
          <mxGeometry relative="1" as="geometry" />
        </mxCell>
        <mxCell id="R7s_IrtqFpmnAKjUKmlR-9" style="edgeStyle=orthogonalEdgeStyle;rounded=0;orthogonalLoop=1;jettySize=auto;html=1;exitX=0.5;exitY=1;exitDx=0;exitDy=0;entryX=0.5;entryY=0;entryDx=0;entryDy=0;endArrow=none;endFill=0;strokeColor=#FF8000;strokeWidth=3;" edge="1" parent="1" source="R7s_IrtqFpmnAKjUKmlR-10" target="R7s_IrtqFpmnAKjUKmlR-19">
          <mxGeometry relative="1" as="geometry" />
        </mxCell>
        <mxCell id="R7s_IrtqFpmnAKjUKmlR-10" value="" style="shape=image;verticalLabelPosition=bottom;labelBackgroundColor=default;verticalAlign=top;aspect=fixed;imageAspect=0;image=data:image/png,iVBORw0KGgoAAAANSUhEUgAAAI4AAACCCAYAAACQP/BzAAAAAXNSR0IArs4c6QAAAERlWElmTU0AKgAAAAgAAYdpAAQAAAABAAAAGgAAAAAAA6ABAAMAAAABAAEAAKACAAQAAAABAAAAjqADAAQAAAABAAAAggAAAABzaq+BAAARkUlEQVR4Ae1dCZQUxRn+e4692OU+ntwIrgeIAgExMSExXhGVhwK7qO9FYzQ+jC/R5D0P8L19ySKJuYyJmGfifewBokFR4xUjgsolIsspIAILKPcu7DFH5/+ru2Z6ZntmumdqZ2e6qx5Ld1fV/1fV/3/zd11/tQKCQsWDteUeVblNDUMFeGAQqKAIYi3ZdJUEFEVFPe5S1HBNmxL655J5N+zmVRGi3Fnz6+7ygLJAAaVQReTI4CwJKIoHUK+tCnhvr5k34xlqXcbAqayuuV3x+B5TwxIwzoJLXGuY9VFDqqqOrXugcrMnLtnW4+zq+j+B4pWgsSW1PM2sqgoGH1qf+6gFaQNnVnXdfMXrvRttWJ5KQlbbrgTQ2oCqqDOIzmeXmPJXVNcvxnfcdeFQMB1ySZPHEsDucjFV3xZwbqp6qqjF2+1Zn89/XSjYnsfNl1XPVAK2gNPiLXkH+0jfkaDJVOz5T28JOLPnvzhADfve8Pp940LBQP63WrYgYwmkBM7MqvoC7BR9BIo6QoImY3k7hkFS4Fxf/dIwFUKv4LipB075fO2YVru0IWgA/B6vt5fX54NgAPuoGYyIM54AdKkO8rrZFdW1M3Hq92FFVQam05DaeRU4lyyD6yRQN69yUfgMz1BQPL/3FhSl1f4OFmdmfb13NPQrLoIyb+vJpg7paZUSR3Qs7lnIoylT00jLxXHqnkjB7y0Tp5PxuFWi5LWJT+0GA8LdIBQcCGtbq6qqYtaGKqtr/4XdkFuslkz5yOLEAGPB0lUT1ZD3QXz3jcG/XpSJzQsbJ4fxnpZMKUpLC1E2Fmh9M5qVZWTxYXarpdD/2qtVewZDMyg+dpFUK4eYUFokK8vIWFMKu+FrqxEK4sXTKIdWaLR+hmeaEeWB3euPOmeWxIqM5EPOURLGO/ZRp9QjeT2o8Mg9q5K2hYDkQyG2HhRD6iEiotIzYZSqCZQysMDkYqgQLihFFiFZtKoGMOIw3m9VlfB9dXMr13Ha66teOD3s823G5wIel+oaA5wFS1b/pLC49InWlpManV4Rvbpa5XkD9UbolYqUwwVAjWVZOQ984A3Xoxg/Iow861zCPILTGsqK1IW4RVHEKCNklF/PyBXBHnkGKpMoIvzpVidg0ZyYs9GeKYtpPiMN8cXA83G2vO1a1TqWxXhrhIw+5lZnQjwilBjHebO8MQT4A9MTCXb83pCvBWPPrJ03ew/FUZj1m5o92GkeHMNUSzL9P9LH+d2SdefhAtbjbRw0ptllpBMk4PF4i0H13GNsi9fjaaCtE3aCltsD9yoIOTuEMm9+SiBMplpfqOQtwBdbxH7zuFRXbR5HVa/m5jUVgUzPcwnQa0zxDci0Fdw+dcuUkaTPHwlgtyTjynLgZMxIMnCXBCRw3KVvYa2VwBEmSncxksBxl76FtVYCR5go3cVIAsdd+hbWWgkcYaJ0FyMJHHfpW1hrJXCEidJdjCRw3KVvYa2VwBEmSncxksBxl76FtVYCR5go3cVIAsdd+hbWWgkcYaJ0FyMJHHfpW1hrJXBMRBnGXfe016nA59X8DIw7w03yuzEqqQuw2wRCXgTkFTB10igYN3IAA04wFIbn3vscdh6w7PTkCrFJ4OhqDqGVGdynDH5+9QQoLY51Mbr50vOgumYFtAXkQVL8VyGBg5KgN9GYYf3g1svPA6+349u7d1kxFBf5JHA4avDaUUqGRDfchvC01NHD+sJtV5xvChoug76lJTHObTzerVdXWxyyND88fzhMu6CcdYaTgcCjewaQG1EA+z1+r7mnQFsghGl46rN5crIi8irNtcAh0FyCoLnqglGWFKZ4FKDRFgFt1vfOSUhDnetHl66GjV/ScUIaeqj/xByKVQXdeHXfN4wip14NkPmHMlcCh5Q7e8rZMPmsQQkBEJ/g93mgwO+FaReeGZ8U80xAuHTcSFi/4wD40DmWniedOZCN0Mj52+ABjnQqbNt7BL45fiqGRz48uA44PnyN3IgWY/wo+86M+MkBSzr1oHViNgYBWn3zxdCnOzvhNSHt/BeXw/b9R1iHM4SvQTptAv9pQb/hgPPpc0sJmWUpwVXAof7JnKnjYPgAOvGm88NAHN6nAg3VYmL5QNiy9zB2zhWYMnY4jBneH4HDkcPrqUBzSxss/nATnGrt+qOCXQEcUkF3nJu5/cpxcFrvUq4JW1eyVKyfYovKYmY0ZEEc3V0+fhTceMnYpEQXjh4Ct/7534AnTCTN19mJjgcOgabY74N7Zk6GkkJ/2vL0oaLibUDazEwIwwic8iF9TVJio6gNNEHZ0ta1k5GOBg51gmk2eM5V46G4IHtNJevU4U0Tq/8ET9agSWtoEjgJRJhpNKmAQPOraydlyso2PZ/zsU2YRwTZ+xlmUShkaUYM6AFzsE8jKtBQXIaoBBwHHLI0pUV+uBMXK0UGNhNs7U0istic5dW1XfNOEIsXNXzLZclHJp1QrClLa7M+pqQ5H+k44JThiGNAT/EHjFmd/DNqvD0YPcrXGO+Ee8cBh2ZdqY8jOhRiH8cuV7ZEJboiOcLPccBpOtUGG3bJ75V0Nr4cBxw6GHHxim3w7vrdnS07V/N3HHC4Nl9d9QUsWr4FtC0NPDb9q9nOwPS55T+lY4FDs7cfbWmEx5Z9KkRL2sYtu70cIUXnJBPHAoekTXMvtF3hkaVr4WSb/CSkSAQ6GjgkKFqc3PX1cXj45dVsy2e6wsuGrbE85M+BCSLHA4eAQnKmXXbk4nLwmP51HJsIooVFu6N8O/qlbRINu1OPBk+cbIOjTa02ay8+u+OWHBKJiHblNbW0w8OvrIZ7ZkyGnqX2vgyXzsKlVStFACPgLN+4m9Vx1KBehs8qaS2iHYAt+Lp959NdQG2xPamUSDBpxrsGOFw+re0h+G3tSvgZusOUD+7No61dUV9szSpFbspDf1+jddvReBRGDuyVkII8RT9s2IP7k3G7KSJtzbZGWLVlb9S6YZy2bRT/R6bMgwK5WQVlwoIzTHAdcEihNLP86LK1cMdVE6B8kHXwtLUHgf7otZUsHDpxCoGjsP7VQ4tXQu/SYuZOQ8qOKJw9qHCkuQUd/UIsP6HFi9bE6zG8FvX3I4EnQpus8CyluQ44XK706vn7q2vhhh+MhgvQCyFVKMJdhNRb+uNLn8Bl40dACa7AR4KuUQLlMeyDvL5qO7MMTOeYRkBikMF7o/ppX7GIL7lE6pHFG9cCh2RMv+5n8ECBdvzFf3fMkJRiJ2AQCF7470Y0DtHfP7uLPGOmONtAdFoXPWUReZPBFaOqZNooQN+nuuWbYRnONCcNTPlaDrISMX8YHX1OysUxia4HDmmSLM+yNTuYJUmk2eZW/JCuZjoSZXFVvASOrm4arXy8tRGefnuDKQA+2rQXRz5SXFw4juzjUJ+DrIgfX0Pk791Koxbe4iRX6jCv3r4fGg83wY8vHQs9SgqhDTdjLcZX2Tc0UkpC67YkxwGHOq1D+/aAGReV497jArbM0LD7G1iyYmvSY0y44glw+482w4K6lVCILjU0/KaREC0HRLvDPLd7r44DTjE6rN1y+Vi2YZ2rdcq5Q6E/bid96q0NEEDHt1SBdXQxE422qFvDQCNREyM2x720e3UrigENb+3ZQ/rAHej5QJvZZchcAo4DDjnuJwrD+neHO6/5FvPqNM7DJMov4xNLIG+AQzv5AsFwhz/yJAjgn1UgEHhokbN7t8LEUpEpKSXQpX0cWjNiE66G/gPzUGD9iuhcqx/Xhq4YPwyGo9LjAUJpBJyVm/fBpztTb0sgifRA0Nw1bRIsfG0tHMTtFvLtlRInHTJ0GXBI4aOH9MYTq4xGT1vJIbeSzV8dglO0aw9BNG5EP5gyZnCHyhsjBvUphT2HmoAOJrISepUVwa/R8vxt6RqkO2GFROYxSEAocOiMF23JRrck+gCWx/EJNBry3nXNBCgrNiwUGirFbr99Bjzy6jpoPNKMfZIk+XQ6D+5noVXrQNi6Exz5Sv1i2kT4x+vrYOu+I2zuJ74a8tlcAsKAQ6C4csII6N+jWAdPbIHH0d/p5Y+3Q3tIZfMrSUGjk56DI6HGI02dOn9CZ/vRMShP/GcDbLSwAy+2Ve59EgIc2ow0FUEzfmT/JJIsgyF9y+Ah3PubeNwTR245YxydzUfafXfbj86HmvcbYAUuLbAddjZ5uC27sYORdtupQ3ta79T+2j2xU0p9m84M2msxvRIqp4yG748dJswXK71a5AeVEODYaSoZkXaLHVg7fEXkpdHVjIvOgul4JG0mABRRl1znkXXgkEDih9S5JqRLxg2HCjwHmV7BMphLoEuAY14VQbE4lBdhLS7C0z3nTB3PtlKI4CeodTnDxnHAoZkgURbt3BH9YcFNF+Mpn6mnA3JGo1mqiOOAI1puRQVeuHv65E7v1Iuud2fzk8CxIOH+PUtgME4liLJkForM+SyOAw71RwxLX8IUkKUpJWH17WxGzgOOwD4OF/6x5lbcTtosN6tzgeDVccAxtE3Ybe3/NuG+5a49Al9YYwQxksBJIcgXcRli/c4DKXK5L1nIWlUuiY31cQR1cp5993NYhYcA0DKJnMuJ1bLjgEPN03b1xDbUzhPNGD/51mewDr9yR/5WMnSUgEDgWBx3WMxGVe0qpf3llVXw1cETzC+rc8ZoHRWRbzFCfk60LeGL/UdTtn0v7tAjlxOrIR2X20zeUs148BL5U+0+eFxuJ02hJCEWh3b0fdCwD7dgNkMf3JKpTftTyZoaqX9AG7m27z+Gu+wQqxatTjr9CpqkS4eO6ve7+pX4+cJATpx4lUJvXZ4sBDjUCtqTsxVPn+Kzq/xKaUyRCv9UsubodvDYKfzmQgklmwayTBv0TzBbxJkpHyuR+9Dld+Fr63CPc1BaGisCwzzCgEPlsXPymMsA2RxUt/7Tp4vxFUKuLo+9uR56lnQ8h4/lxf9OoAUgv21iZ+VjGpqlMZZiTQL0+eaFeDqXfUpr/J2aSyhw7AgphHuPD51o0RQW0Rr/gIfmqU2WhpIa9hyGc4f3M3wVJjpuojxk7Rp2H2auLvStKqO1S1an9TsOwvM4TxMpPllmmRYjgS4DDtVCN06GPg8BRg8GbZL1efzNz9jhiSwVgUKWSQu02Uphp1LQM0EqkqRlMP1/+cY9sGTlVkt5TRm4PLJLgWNH9gSGqCUxAoe4GKDCMibn/AYeovTGmp3SHSa5mJKm5g1wkrbCkNiObsLUNyouNG/aS3jcyYfoyUAjQRnSl4CQeZz0ixdP2dIegO3oXBcfWvGcmyfxmJP3P/8qPkk+pyEB859lGoxyhYQmDZ9/fxNzcTl7aB92MNKqbQfgvQ1fsjcazUYbXmy5Uu28q4fjgEMaIHDUfrAZ73CUhn1nck+X5+KIxaYjgUMiIpdk6kzTGiWzMNFhmFgJupSb4/o4LtVj1pstgZN1kTujQAkcZ+gx662QwMm6yPO+QOYXLYGT93rMYgNojUiFT6hECZwsyt0RRXmU+RI4jtBkdhrh9flxKVmtrZ07a5kETnZknvelKDiDGg4GFtbMrZjNGyNfVVwS8moqAZ+/ED8sG66qmVdxhzGDY2eOjY2U9+lJQMH94YFg6y/rHqj8azwHCZx4ichnJgGPvwAXioOz6u6vXGQmEvmqMpOKq+PYPiU12N4+ve6+maagIfFIi+NqkJg1Pgz+IIx9rqpyo1kqj5MWh0vC5Vfax4S7CE7h34WpQEOikhbH5YDhzQ+HgsfDwabTF1X9tOP2SZ7JcJUWxyAM194q8KVHDU60ChqSk7Q4rkVLtOE4Gzwn+mTtjluc1CcGWOMnc+WBBPC11JxpNTXgKOpimuyRwfkSYHpW1aczbSlDSyAY/IMaCge0jnWmLCV9zkpAUVRcPmj2e/0PZlpHBpwHZkzejkufN6phtZUhkvZdyOAgCaBrNbl6hNUWRQld+/zc6/Zn2rjI++ne6RPqPRAqR9eAKizgCxzXS/ejTKWbA/SoRPq3BT0+7m9X2kbVzL3+7RyolqyCWyXwf8Bv3o0IVcuqAAAAAElFTkSuQmCC;" vertex="1" parent="1">
          <mxGeometry x="413" y="591" width="72" height="65.92" as="geometry" />
        </mxCell>
        <mxCell id="R7s_IrtqFpmnAKjUKmlR-11" style="edgeStyle=orthogonalEdgeStyle;rounded=0;orthogonalLoop=1;jettySize=auto;html=1;exitX=0.5;exitY=1;exitDx=0;exitDy=0;entryX=0.5;entryY=0;entryDx=0;entryDy=0;endArrow=none;endFill=0;strokeColor=#FF8000;strokeWidth=3;" edge="1" parent="1" source="R7s_IrtqFpmnAKjUKmlR-12" target="R7s_IrtqFpmnAKjUKmlR-20">
          <mxGeometry relative="1" as="geometry" />
        </mxCell>
        <mxCell id="R7s_IrtqFpmnAKjUKmlR-12" value="" style="shape=image;verticalLabelPosition=bottom;labelBackgroundColor=default;verticalAlign=top;aspect=fixed;imageAspect=0;image=data:image/png,iVBORw0KGgoAAAANSUhEUgAAAI4AAACCCAYAAACQP/BzAAAAAXNSR0IArs4c6QAAAERlWElmTU0AKgAAAAgAAYdpAAQAAAABAAAAGgAAAAAAA6ABAAMAAAABAAEAAKACAAQAAAABAAAAjqADAAQAAAABAAAAggAAAABzaq+BAAARkUlEQVR4Ae1dCZQUxRn+e4692OU+ntwIrgeIAgExMSExXhGVhwK7qO9FYzQ+jC/R5D0P8L19ySKJuYyJmGfifewBokFR4xUjgsolIsspIAILKPcu7DFH5/+ru2Z6ZntmumdqZ2e6qx5Ld1fV/1fV/3/zd11/tQKCQsWDteUeVblNDUMFeGAQqKAIYi3ZdJUEFEVFPe5S1HBNmxL655J5N+zmVRGi3Fnz6+7ygLJAAaVQReTI4CwJKIoHUK+tCnhvr5k34xlqXcbAqayuuV3x+B5TwxIwzoJLXGuY9VFDqqqOrXugcrMnLtnW4+zq+j+B4pWgsSW1PM2sqgoGH1qf+6gFaQNnVnXdfMXrvRttWJ5KQlbbrgTQ2oCqqDOIzmeXmPJXVNcvxnfcdeFQMB1ySZPHEsDucjFV3xZwbqp6qqjF2+1Zn89/XSjYnsfNl1XPVAK2gNPiLXkH+0jfkaDJVOz5T28JOLPnvzhADfve8Pp940LBQP63WrYgYwmkBM7MqvoC7BR9BIo6QoImY3k7hkFS4Fxf/dIwFUKv4LipB075fO2YVru0IWgA/B6vt5fX54NgAPuoGYyIM54AdKkO8rrZFdW1M3Hq92FFVQam05DaeRU4lyyD6yRQN69yUfgMz1BQPL/3FhSl1f4OFmdmfb13NPQrLoIyb+vJpg7paZUSR3Qs7lnIoylT00jLxXHqnkjB7y0Tp5PxuFWi5LWJT+0GA8LdIBQcCGtbq6qqYtaGKqtr/4XdkFuslkz5yOLEAGPB0lUT1ZD3QXz3jcG/XpSJzQsbJ4fxnpZMKUpLC1E2Fmh9M5qVZWTxYXarpdD/2qtVewZDMyg+dpFUK4eYUFokK8vIWFMKu+FrqxEK4sXTKIdWaLR+hmeaEeWB3euPOmeWxIqM5EPOURLGO/ZRp9QjeT2o8Mg9q5K2hYDkQyG2HhRD6iEiotIzYZSqCZQysMDkYqgQLihFFiFZtKoGMOIw3m9VlfB9dXMr13Ha66teOD3s823G5wIel+oaA5wFS1b/pLC49InWlpManV4Rvbpa5XkD9UbolYqUwwVAjWVZOQ984A3Xoxg/Iow861zCPILTGsqK1IW4RVHEKCNklF/PyBXBHnkGKpMoIvzpVidg0ZyYs9GeKYtpPiMN8cXA83G2vO1a1TqWxXhrhIw+5lZnQjwilBjHebO8MQT4A9MTCXb83pCvBWPPrJ03ew/FUZj1m5o92GkeHMNUSzL9P9LH+d2SdefhAtbjbRw0ptllpBMk4PF4i0H13GNsi9fjaaCtE3aCltsD9yoIOTuEMm9+SiBMplpfqOQtwBdbxH7zuFRXbR5HVa/m5jUVgUzPcwnQa0zxDci0Fdw+dcuUkaTPHwlgtyTjynLgZMxIMnCXBCRw3KVvYa2VwBEmSncxksBxl76FtVYCR5go3cVIAsdd+hbWWgkcYaJ0FyMJHHfpW1hrJXCEidJdjCRw3KVvYa2VwBEmSncxksBxl76FtVYCR5go3cVIAsdd+hbWWgkcYaJ0FyMJHHfpW1hrJXBMRBnGXfe016nA59X8DIw7w03yuzEqqQuw2wRCXgTkFTB10igYN3IAA04wFIbn3vscdh6w7PTkCrFJ4OhqDqGVGdynDH5+9QQoLY51Mbr50vOgumYFtAXkQVL8VyGBg5KgN9GYYf3g1svPA6+349u7d1kxFBf5JHA4avDaUUqGRDfchvC01NHD+sJtV5xvChoug76lJTHObTzerVdXWxyyND88fzhMu6CcdYaTgcCjewaQG1EA+z1+r7mnQFsghGl46rN5crIi8irNtcAh0FyCoLnqglGWFKZ4FKDRFgFt1vfOSUhDnetHl66GjV/ScUIaeqj/xByKVQXdeHXfN4wip14NkPmHMlcCh5Q7e8rZMPmsQQkBEJ/g93mgwO+FaReeGZ8U80xAuHTcSFi/4wD40DmWniedOZCN0Mj52+ABjnQqbNt7BL45fiqGRz48uA44PnyN3IgWY/wo+86M+MkBSzr1oHViNgYBWn3zxdCnOzvhNSHt/BeXw/b9R1iHM4SvQTptAv9pQb/hgPPpc0sJmWUpwVXAof7JnKnjYPgAOvGm88NAHN6nAg3VYmL5QNiy9zB2zhWYMnY4jBneH4HDkcPrqUBzSxss/nATnGrt+qOCXQEcUkF3nJu5/cpxcFrvUq4JW1eyVKyfYovKYmY0ZEEc3V0+fhTceMnYpEQXjh4Ct/7534AnTCTN19mJjgcOgabY74N7Zk6GkkJ/2vL0oaLibUDazEwIwwic8iF9TVJio6gNNEHZ0ta1k5GOBg51gmk2eM5V46G4IHtNJevU4U0Tq/8ET9agSWtoEjgJRJhpNKmAQPOraydlyso2PZ/zsU2YRwTZ+xlmUShkaUYM6AFzsE8jKtBQXIaoBBwHHLI0pUV+uBMXK0UGNhNs7U0istic5dW1XfNOEIsXNXzLZclHJp1QrClLa7M+pqQ5H+k44JThiGNAT/EHjFmd/DNqvD0YPcrXGO+Ee8cBh2ZdqY8jOhRiH8cuV7ZEJboiOcLPccBpOtUGG3bJ75V0Nr4cBxw6GHHxim3w7vrdnS07V/N3HHC4Nl9d9QUsWr4FtC0NPDb9q9nOwPS55T+lY4FDs7cfbWmEx5Z9KkRL2sYtu70cIUXnJBPHAoekTXMvtF3hkaVr4WSb/CSkSAQ6GjgkKFqc3PX1cXj45dVsy2e6wsuGrbE85M+BCSLHA4eAQnKmXXbk4nLwmP51HJsIooVFu6N8O/qlbRINu1OPBk+cbIOjTa02ay8+u+OWHBKJiHblNbW0w8OvrIZ7ZkyGnqX2vgyXzsKlVStFACPgLN+4m9Vx1KBehs8qaS2iHYAt+Lp959NdQG2xPamUSDBpxrsGOFw+re0h+G3tSvgZusOUD+7No61dUV9szSpFbspDf1+jddvReBRGDuyVkII8RT9s2IP7k3G7KSJtzbZGWLVlb9S6YZy2bRT/R6bMgwK5WQVlwoIzTHAdcEihNLP86LK1cMdVE6B8kHXwtLUHgf7otZUsHDpxCoGjsP7VQ4tXQu/SYuZOQ8qOKJw9qHCkuQUd/UIsP6HFi9bE6zG8FvX3I4EnQpus8CyluQ44XK706vn7q2vhhh+MhgvQCyFVKMJdhNRb+uNLn8Bl40dACa7AR4KuUQLlMeyDvL5qO7MMTOeYRkBikMF7o/ppX7GIL7lE6pHFG9cCh2RMv+5n8ECBdvzFf3fMkJRiJ2AQCF7470Y0DtHfP7uLPGOmONtAdFoXPWUReZPBFaOqZNooQN+nuuWbYRnONCcNTPlaDrISMX8YHX1OysUxia4HDmmSLM+yNTuYJUmk2eZW/JCuZjoSZXFVvASOrm4arXy8tRGefnuDKQA+2rQXRz5SXFw4juzjUJ+DrIgfX0Pk791Koxbe4iRX6jCv3r4fGg83wY8vHQs9SgqhDTdjLcZX2Tc0UkpC67YkxwGHOq1D+/aAGReV497jArbM0LD7G1iyYmvSY0y44glw+482w4K6lVCILjU0/KaREC0HRLvDPLd7r44DTjE6rN1y+Vi2YZ2rdcq5Q6E/bid96q0NEEDHt1SBdXQxE422qFvDQCNREyM2x720e3UrigENb+3ZQ/rAHej5QJvZZchcAo4DDjnuJwrD+neHO6/5FvPqNM7DJMov4xNLIG+AQzv5AsFwhz/yJAjgn1UgEHhokbN7t8LEUpEpKSXQpX0cWjNiE66G/gPzUGD9iuhcqx/Xhq4YPwyGo9LjAUJpBJyVm/fBpztTb0sgifRA0Nw1bRIsfG0tHMTtFvLtlRInHTJ0GXBI4aOH9MYTq4xGT1vJIbeSzV8dglO0aw9BNG5EP5gyZnCHyhsjBvUphT2HmoAOJrISepUVwa/R8vxt6RqkO2GFROYxSEAocOiMF23JRrck+gCWx/EJNBry3nXNBCgrNiwUGirFbr99Bjzy6jpoPNKMfZIk+XQ6D+5noVXrQNi6Exz5Sv1i2kT4x+vrYOu+I2zuJ74a8tlcAsKAQ6C4csII6N+jWAdPbIHH0d/p5Y+3Q3tIZfMrSUGjk56DI6HGI02dOn9CZ/vRMShP/GcDbLSwAy+2Ve59EgIc2ow0FUEzfmT/JJIsgyF9y+Ah3PubeNwTR245YxydzUfafXfbj86HmvcbYAUuLbAddjZ5uC27sYORdtupQ3ta79T+2j2xU0p9m84M2msxvRIqp4yG748dJswXK71a5AeVEODYaSoZkXaLHVg7fEXkpdHVjIvOgul4JG0mABRRl1znkXXgkEDih9S5JqRLxg2HCjwHmV7BMphLoEuAY14VQbE4lBdhLS7C0z3nTB3PtlKI4CeodTnDxnHAoZkgURbt3BH9YcFNF+Mpn6mnA3JGo1mqiOOAI1puRQVeuHv65E7v1Iuud2fzk8CxIOH+PUtgME4liLJkForM+SyOAw71RwxLX8IUkKUpJWH17WxGzgOOwD4OF/6x5lbcTtosN6tzgeDVccAxtE3Ybe3/NuG+5a49Al9YYwQxksBJIcgXcRli/c4DKXK5L1nIWlUuiY31cQR1cp5993NYhYcA0DKJnMuJ1bLjgEPN03b1xDbUzhPNGD/51mewDr9yR/5WMnSUgEDgWBx3WMxGVe0qpf3llVXw1cETzC+rc8ZoHRWRbzFCfk60LeGL/UdTtn0v7tAjlxOrIR2X20zeUs148BL5U+0+eFxuJ02hJCEWh3b0fdCwD7dgNkMf3JKpTftTyZoaqX9AG7m27z+Gu+wQqxatTjr9CpqkS4eO6ve7+pX4+cJATpx4lUJvXZ4sBDjUCtqTsxVPn+Kzq/xKaUyRCv9UsubodvDYKfzmQgklmwayTBv0TzBbxJkpHyuR+9Dld+Fr63CPc1BaGisCwzzCgEPlsXPymMsA2RxUt/7Tp4vxFUKuLo+9uR56lnQ8h4/lxf9OoAUgv21iZ+VjGpqlMZZiTQL0+eaFeDqXfUpr/J2aSyhw7AgphHuPD51o0RQW0Rr/gIfmqU2WhpIa9hyGc4f3M3wVJjpuojxk7Rp2H2auLvStKqO1S1an9TsOwvM4TxMpPllmmRYjgS4DDtVCN06GPg8BRg8GbZL1efzNz9jhiSwVgUKWSQu02Uphp1LQM0EqkqRlMP1/+cY9sGTlVkt5TRm4PLJLgWNH9gSGqCUxAoe4GKDCMibn/AYeovTGmp3SHSa5mJKm5g1wkrbCkNiObsLUNyouNG/aS3jcyYfoyUAjQRnSl4CQeZz0ixdP2dIegO3oXBcfWvGcmyfxmJP3P/8qPkk+pyEB859lGoxyhYQmDZ9/fxNzcTl7aB92MNKqbQfgvQ1fsjcazUYbXmy5Uu28q4fjgEMaIHDUfrAZ73CUhn1nck+X5+KIxaYjgUMiIpdk6kzTGiWzMNFhmFgJupSb4/o4LtVj1pstgZN1kTujQAkcZ+gx662QwMm6yPO+QOYXLYGT93rMYgNojUiFT6hECZwsyt0RRXmU+RI4jtBkdhrh9flxKVmtrZ07a5kETnZknvelKDiDGg4GFtbMrZjNGyNfVVwS8moqAZ+/ED8sG66qmVdxhzGDY2eOjY2U9+lJQMH94YFg6y/rHqj8azwHCZx4ichnJgGPvwAXioOz6u6vXGQmEvmqMpOKq+PYPiU12N4+ve6+maagIfFIi+NqkJg1Pgz+IIx9rqpyo1kqj5MWh0vC5Vfax4S7CE7h34WpQEOikhbH5YDhzQ+HgsfDwabTF1X9tOP2SZ7JcJUWxyAM194q8KVHDU60ChqSk7Q4rkVLtOE4Gzwn+mTtjluc1CcGWOMnc+WBBPC11JxpNTXgKOpimuyRwfkSYHpW1aczbSlDSyAY/IMaCge0jnWmLCV9zkpAUVRcPmj2e/0PZlpHBpwHZkzejkufN6phtZUhkvZdyOAgCaBrNbl6hNUWRQld+/zc6/Zn2rjI++ne6RPqPRAqR9eAKizgCxzXS/ejTKWbA/SoRPq3BT0+7m9X2kbVzL3+7RyolqyCWyXwf8Bv3o0IVcuqAAAAAElFTkSuQmCC;" vertex="1" parent="1">
          <mxGeometry x="554" y="591" width="72" height="65.92" as="geometry" />
        </mxCell>
        <mxCell id="R7s_IrtqFpmnAKjUKmlR-13" value="NBS-S5710" style="text;html=1;strokeColor=none;fillColor=none;align=center;verticalAlign=middle;whiteSpace=wrap;rounded=0;" vertex="1" parent="1">
          <mxGeometry x="341" y="451" width="72" height="30" as="geometry" />
        </mxCell>
        <mxCell id="R7s_IrtqFpmnAKjUKmlR-14" value="EG2100-P" style="text;html=1;strokeColor=none;fillColor=none;align=center;verticalAlign=middle;whiteSpace=wrap;rounded=0;" vertex="1" parent="1">
          <mxGeometry x="484" y="340.73" width="72" height="30" as="geometry" />
        </mxCell>
        <mxCell id="R7s_IrtqFpmnAKjUKmlR-15" value="RG-S1920" style="text;html=1;strokeColor=none;fillColor=none;align=center;verticalAlign=middle;whiteSpace=wrap;rounded=0;" vertex="1" parent="1">
          <mxGeometry x="224" y="561" width="82" height="30" as="geometry" />
        </mxCell>
        <mxCell id="R7s_IrtqFpmnAKjUKmlR-16" value="RG-S1930" style="text;html=1;strokeColor=none;fillColor=none;align=center;verticalAlign=middle;whiteSpace=wrap;rounded=0;" vertex="1" parent="1">
          <mxGeometry x="374" y="561" width="72" height="30" as="geometry" />
        </mxCell>
        <mxCell id="R7s_IrtqFpmnAKjUKmlR-17" value="POE-Switch" style="text;html=1;strokeColor=none;fillColor=none;align=center;verticalAlign=middle;whiteSpace=wrap;rounded=0;" vertex="1" parent="1">
          <mxGeometry x="514" y="561" width="72" height="30" as="geometry" />
        </mxCell>
        <mxCell id="R7s_IrtqFpmnAKjUKmlR-18" value="" style="shape=image;verticalLabelPosition=bottom;labelBackgroundColor=default;verticalAlign=top;aspect=fixed;imageAspect=0;image=data:image/png,iVBORw0KGgoAAAANSUhEUgAAAIIAAAB8CAYAAAClm2iUAAAAAXNSR0IArs4c6QAAAERlWElmTU0AKgAAAAgAAYdpAAQAAAABAAAAGgAAAAAAA6ABAAMAAAABAAEAAKACAAQAAAABAAAAgqADAAQAAAABAAAAfAAAAAARdinsAAAfV0lEQVR4Ae1dCbwcRZnvY2bee7meQaO7+OOHorBCFETxl4SEkBciyClXApqbEOKCrIuEELl2VshtEg4XBISESDgSghhROSQEFUVXXXVF3NXlUAJyBcK7Z6a79/9V99dd3V09M/3yyMzEqaRfVX31XfV9X1dVVx+ja0jLv/0rh3JOjhOqMljkyS0S2kDpy9BJ3P1iFN3RqtIukV40RJn62PECS6tMwphhHiFoZSZhYtQEvcckbd+ZGYvNECDJ8SFFmTKaM6conPgqYD6oDJ2PIxWi6Gk7HqUXrJVASahU5L5UJmFMiRjFELQykzAx1cDA5ZG25wGrRLFoEIEQoLIwGaIoJ3KsQF+GTiEFARqGpjVBlF5wUwLDcrjG4kXOFW7088SGwPkpZPpsUZDlpu078akoVkJwRwRZerQsIceaogC5XoZORuNyFD1Nx6O0gqcSyNLiue9OFPxyDK2KlpRyZRFMmqbvTM+0XI/lFRBiI4JgUIYo2RSgLEMXVUyFmtYAMR4xQFRquM59KU/GWGFaqvkt5RnECT2ITJa270K+r4BChMxc0cwgRnMDgWvc6uWJchLwI+R+VYWetuMxHjGAL05Z4L6UJ2OsOAu/pTyDOKEHkcnS9p1YyPRKIRURyvMIjQh+Z5WSqtEmIFTpldYAPg9STE8pn9BZHb/AADlPbvRbfEVkusplInN5+JwqE0UwEkUnNgQMqkDxkZPXCCm4qFAH7HRWLcq0jC3lpigZs3NzGTOhpTyDMJFUY7K0/ZZYJJ/1zFxGjpSrQIlQhKtlpwYXlU5FbYuua7ZMaodq1BIGCCqZIFKOukTgyyyMShwCiQ7oGJvzQJwsKdwatNg+fVAIOCSV7ICBr4BeJQNBCr1DXQ4JkpjD+Kqkkq/CQ4S16rp+sr9N4EWNA74MC00NKia6YWjjRn7i7I4OvaRqb8Lq3wL5u375HksrvmaXXBf6ISYNI7FAkNrcHgLwxHv/YNR/d5saJlmgq9RvtGCE9QNAgeiuERQYuzPXKeQ0QbW2gHp28S8l3EAoGyu17kFT/qBZIDbc81WNFt9iHjShTUb1ZQFpZRmfACL3GhQBg2UtyJ6urz41tUlvAQdTgxsA8TAgbuo1ghwRSXNLel2aFDW1AAVAPAjY1e5VA9dqqmhT+DtlgWFg3I8YiLpZDgs3EN4pDZp869ICcgCwgqFAkBE4enQAD2HsZt6wFiDfyv6NdsRdI3hQdn4YqRx5GLNZa0ALeE53AyHk61Aldc+u+taTJzqmPk9zdHkbXfAJ1p2xpqrksGbIW0q9hYuWn9vx56oIm0juAiFypstVaWpgM0etBvjoKCy5bpj6gWYud5ot3ZXiGxuBhPQ71qQ0URmZrFYq9F7QDIJkH0RbugAwA+PHFo2E7wWCiyXh+ktMWiOkSrpuW7i5YdlWKjJGlqOUYSJHg64bmmP1Tr56+qTHQ23NSmULwI9q27oO9qYGVOhWpxqzshAJw8KNVV2cuxIwoUjilGJZD68Rt1AFIsAnXz2jGQQJ5qwC7DrdvWfOZZcsmBrY+FWwGyiKSoQP8wsSdw+GqaUvo9mfzM+Y+AeptVms2gI0ObRJ2G4Q+KGAQhAIEpooelg0v6e1Pi0KiVzlW5e3r4KoJv6hqcBxejXLmpSf3QyCRDtV0eBvMSeYPhQIsuP4NjQt0ILVfmWJYo0IIpmXT6UE+q2iEKDg/rltv6E7/YctmX3MjjBWs5baAnShpggC9rMIBDuwfmr+SoKyw0FAkSSWnoqybeslQ8tNuGb2hGYQBCbbrRI7XcUkNCKoENLDKPTUY0iS42UZtDDESPCCbWiHL50+5k25rVkeqAWGYTBQPGkojRCJF/TkND7S3oYWawSJ3udTRT8oarNvZg5dPv2oZhBUYa9UKGKkBgXnEnEoENhhlAcpVAnASSVsH0jPQCRhJcLp0rP/XYWtF17//ZZEpGZDOgt0Az3BjXQxQIcIBA4AnzsDOPcbBrfAStAahQ/aiMLG0dFD24c9MrjSmtzY3nLOVglGBHY65aGknu9DKFVWZAXI8SQpKo1YEZ6ZyU5cvOGJx/Kbns5Vyb6JlmSBoa5No81sf8rdQIg5nwiDI8qgUt1dI7hDDjmVz3ZZcCIPT7BdKkI5Y3J/7+vbE3GbDVVbQLY9l31i2DwYEQDdHef7TFGwwIiFUV4xKQQTHQWQbmbGLV7/o0fPu/mX2Yp8mghqC9AaQU6yvamMpF4jyESDXfYEc9SJ6QIy5MCRwwh3sDRsME55d2vXTwdblb8bfpga2N4iV3Q8NCIo2gcHJEWgmclBF+tO7DY8Q+/eBUkOhQBKJZsuQ4zMEZeuf+LhcEuzNhgWIMsnBgIv7Gh4Tp0kx1ME+i6G44vFwtrlsyfNamvLTEBA9LixEMiIkLqBDAUsC9elhnHswvVPNEeG1A4JCHxfAMRlMnIoEHhRR7mPJEoBo0ol3tJmeuZkmCYNT1evmDPxy6RDftqRO0tZZ388wPIc7URSANCJH9AFZZaJHUctY5rjFt3xo+8yrJlXZwG2q8AmY8sHgCIQOACqY1kNFoulHG7GaW/bxcuWz554lUy9+vMdr7c5zidKmt0VniZkrHCZ3ug1NP2khesefyrc0qwlWwC3oSOOj+Im32sgQkpe5lbS/SUWNPSXStb8Ved0fFNFnZ/b8dbCDU9+SLOLT2Ej6YM0JflJMEAtAqJpwjQyYxZ+c/v3vnbupBN9/AEW8nf/7BQIORPnRZFYuOLs0LcLYqyBhNGuBdPb9UumT/xFrL0BAJJZFc8jyI4QRpHRK/fOwtyAm4ciAAkbM/s8BMHt5Si/Nmv8q4tu+8lhdqb0gu7oI9kVREMfwVAl3J3UzKx5wsLbn3hq1dyJ4zDqpFNUYgoRh2cyuZnFYr8EVRd98yDCodutS2Y0VhCojEQnn7tGoN7hUF3Kqc1RHkrCcBRLunPCqtlHlw0C5rRy3oTObKF0MM6wv/CawTc6I/m5K4EuLfHa/5hLbt/+fb9pAAU69921TJjYM4s7qiJaHLGIgdEMrHds+7IlM8afF6ao35rnE9fH7GsvJ61FIDBS0A2GcB60VCrhKXbdsbClZBqnrJ496QeV8OX2pfOnvNLdq492HPs1MafIjWLAjusDXFxZZj5zybptP8vnH0+e6kK81JWQ44Uo/GGgkE90uoaHc5deM2PCMjWXOoRiQ4mvApO0c0eEkJHJAkH/yQ6pkmO8aWW1MatmHvVQKjoP+cYLOrqyVtvH4OAdwaVloASVxIE/7CPxSRjHGNu1n5Yq8Hz9pLPdZ+p1nGW4VSx6HXv2kpkTLvdpG7gQ2JKnBqkz3HEGEXKatGrOURtWz5j0n2loorhL54995e3i8IMQDC9hkzkIU1/zKAVdetLIYE65+LZtTw7kFjb3k/vPOUvCTTASctnSmUdtYFgj5r4JuYOUI7lTA8pUV13H16qztyw4oqdg2Z/QHfsV8aUyV1+hDs3n0X/UYBWxHa0bR7YMaa1qXcJ9E89ZejZgmJzTsCre1dCdE73pR94SlVHrskzPMAt7RZwvK5uwRpBRale+DmsGJ1v8EDadXnCfwnXdH9OIggQHvQCDq4lXrIJ9ZQwnBUCwg9F4f4XqYsQxMuP7P5h5KL/u8cZ7aIY6EU2iowAi99YIUQxqRCsfoxXtewj0tVnHdeM1urHYVdxFCzVSOnZ4usBZr4+w2j+69vwpz6ZTD9cNsuNRJjF+8uxAt8YRbcf0Gsb2qVOn4tKhgZLCbgEotkZAEzvf6yNV0z6zONjmWTW342+9hRw2m+wX4lcT8A02LtD2slPoGZNfcMTraeVjrRhPNq5c6J0KpMBgZB5Ly2SyYw444YIfLtzwMN3Xa4hEfaAU9CUoEdwdETzn0+YNxwHnhFQP6abzj3qz1Rk6BtfynaILUJAvieyStSNjdP/T2vNPSjkSeD2jSJD4YXgo6UZmsqEbExFgePw3kEV2KRYxMhjGJN1pfQyUDbJe4GmVAyDsVXeNgDbqYL0nuppw9MIH4Bw4HEtIbOxA7Rctxz5y5bzPdu6O/rSlJFzqOC9brdlDl84a//slsyb8EuuTqYgTWoX6ZxPJoSDMmJkxi9Zt337Rpp/K75Ptjho1o1WsESgiokfN9IsJXnvuZ3aWzNxYzOrdWBju0NrbDrpuwaf/EkNMBYCr0WXHsnsLtjZm5dnjnmHylXM7HsAe6Xj4vSBgdMbgoF3GUqFIxYnZzsKA9kxYRq1yryvieQ8vEGTHu2HAyhFyvaUbzpn4WjGn7Y+bTx1rpx0p5vHd1FHHcxLPGo6x/5pzjv5rlNfKc4/5haNbZ2B0wJape8tcxjFz2YkLb9/+2MJV9blmoI9pCQ/jD10qk0/pYR+eWqkvoRFBIBMUBY4WqtZj+o/ZU964/gvH/mkwdINzX7Fy9phlCLAkfqtmdzxoWNoE7FZgZGBLufNusUAgZ7L2rtz3kuhrDacRjBxPurt5WCMRCL7TuX8uOpGEsffSGh6WuYmejajUvZXzO57CCXUKDClGBrrkFGeVsBQuwXKZoy++7bGGe06C+hAaEcgQ5Hw5AORyJUP9PbSvPmfyw9hnnIQjuGftnUC4esGXYkqXNYodRBCLUcKbGlzXu39FJ3hk4LxReraH9Fw979M/MTXzeJwxYpYgg9JDubZlf/ba+cdt20NqVC1G3mJm51Mup/CI0HS8bJuy5ZXzJj2OpeNxuJQtkFFL/X2T15w3eWtZolo2hv0e08QNBEUABJETo2kCPAusXXDMI7hyOcnRnTPWLJjyeKMahnwde5AjOmSIsa9Re7gH9L7uC8c9ugfEvCMiZF+LQJABJFEeReTyO6JNk+kesYBYAUbWBbLg0IjQdLpsmr2sXMG57ogg9zkaNdG6jNss7x0WCK0Rmg7fO5yapheez2mwcKeGMkFQYURJI7aJWysL0EZCK1YJZfwcWiOwnrLzB/7aCHNr5vVgAdmnKn0qrxGakaCy214BkweIilPDXtHjZif8LQF2Po0Q9GgVjxTKqUG2GyPKsGa5AS0AR9LrCnKivQVOoUAgsBwltLgwAlymaeYNaAHX6cnOjK0R6B57OEXr4dZmrREsQF/Tao0rKrnWDYSY88M0+Wmj3ef1wuBmrUEskG1p7RMOlBwvTwvUjdDUEO0X0dEI8cWbHroWD/HiUwdlEh7dGbTk8YqxjAHKSXR7nYpEyQ4cJAMqUZTAsORwTUkggIxneAWuU6NcTuYQb+m1rSH4ygy6kdwRPxB8lMjoQOsE08x+KcbeJ3BbHLz3ww/4lxMY4yMDPJ54sV5AmZ+PUuHdItWGSfiBC5+TogCtI31ykarnIDOA1UIyynGR5TKV4xEEdIrHyVhCTO+oB/D6Hn2MLClBgWCNIGsTIaAPUogUERhUg1KEtGKVxaqcWIl4IDRRnrvNw+tAWgtwv2V94jziEB9f0RR1v4+rKkQUcEeECFDQRQQF1aCk4l8OxmIGYvyB0ER1ifKgV93pKOGdRnw6B288F3DgLaak5HUgrQW438xWTa+GChpFUyqnE5OIElGW8sjjzoWE4WFx0RXKNaFaVX9INh/R5+irYkCqgEHUgdXSEh7TyzzEr8Zp+qulYvFfnb7e1hvPP1bvMneNwGv1V0HaW6H3K70OCD7Er0rh3G/KOcUtyBAJKYrsNZEP5H+MlpjLCnhKlJHmTusX3viwpK9CqURpQYPEYECOkx0VcE1XqoaH+IUYfIDD7mk55JbFn8Yb1uH0xRse2bdo9/8ZvxvRRoavJsl9Z/w4ZRzCuCox1coWPBQKlJEWiJWQxIjg1umv1OKjJxdIPh3y2V6NM5ijOMvAIA0N01Iu01fNw3FKRjE7VhUExPPrFx77Ek6PcfQ9hsTk9Zv7T3hkOflwaeMQFx5Hls/2qoKAhVPupTLSGEX4i0l9IAreVUPATG6UyyyvaoPLxF65VrS+KugE/v/8mc7cyz5MUdi5s/eZfUYO+Q2aPs79ltHU1lJDBV2kqSpHhwRGGKAtDpEJ3LJKd8by6T2kYI3AGFKe9J6chFK2OKAzVuIo00vgdEXqKA7BC5S2rr+wPd/hXQapWW3OTy2CaodsSDIcHwEVQyiPJEUTBUDVQeDpLU5hsJbZKaQJ4TKJrDtr5vOQEb3GYB/B4x49a1UMmbGcR+nktmrKu0svZHjKJhnKxbErfvYmn/93fYdzhG8bV/8yXCNNVTubDRMxcoQdY4XyCEmojSo+j0qIHqUYEeQ5PsaxDECcZRA0UCfuLr04W6ijng7Ued8ASXrrxoGVvsf49CGHZLAPd2D4PJQYsiDOhVz3bK86CDy9VWe8JClWZLJYg9DB05iRKK8yRaI+mWqgzpY57hYPqVPVd0/EiKyChq/EH/riPt3jAPxxqEGqtL/UdpqeyR7g0J6CQljVzmaeku4EUrBkzFAeIQu3ca0cEuNEchWJco3ADhvoGauiZ1hEJ3WVNPUOXwdgkgHLGVEiY3Ifn2kt+kUYy9k2/9oHj1MJn3/d1mn4ZM49Nn0eh9RQ/FPR+TC2sqy/pzfr4ONKBUFG8qSDm5lO2IJ4qZAYOZLLqFyOoIiquEg6/+s/AG8SN/C0u/TCAhCfVguV2nEecYj47E6p9H3d1JdZxcJfDbPlQOzI5/HV9/F4o7l6QygUiEtTs1OQCsQQfRKSmqUPrYpMQhJTQ1onpsX3teOCp0Cow9xWJme9KXoN+hIqUpwHQQgj3kL4MthoaTtBz2ROyGH5SGe+ZeFTOLhUMo2E3xEjBSKsZSl0TybJNqy70EH6I9PzySA1V1VM4h0iLoNEfec1Ak4But8lvn4sRgnRY6nTbgdDaofkVKx4iqTloNIfH77qtYulG6Cuxy7dDVoXG3/phlyZWwuiT2Vu2sl9hiaObTjTYbL9CK7Sm/F9G5RDYuSEvCpSgcTu9HIIx8jHXKmGw7BFIFiG3qGX9BbcOW0xda0Vr3u3aXZpiJ4xhwJvGD5cNQJxMhyRMszWtWFgOQIM8GkenX59ehh24UbAKUPx/cEs/aQvhZP77UO3yxREHEgil+qgx39XH7p6iSYlxNG6b73oxEujuLWuz12zdSw6KgKBdfH1F05hqJuLex7euScyDDcME58ddoHi/BR1tOM7TiDGqQB+uEmGzOmGuTuRdwGnG6bsxBUPfhHHoF/FoTca8LU54DhUtjoB78H3XnozptZbsow+XbfARO8XgXDLBcf/JKzi7tUuWrOprXvoqKFaf1+7XiqOxFjbjp2cdsPQ94HC7ehPO3w+UneckRiHRiAA2tGJdyGGhmuOjnHZMdAJA8oj9mikwtMO9H1dR9ylp1v2/eADm+nOeTd/d4jd41yG8Esxscv988cHGagsCx9AG06kAwxvOp3t16zPd/Tp+D4j+tADH7G3kOPrlTq+vgTvIShwHrlt+KZRH2C7dNPZRc7DDyHvgpvfAvIu9HuXYzpv4uGUTsvR3rJ0a1fWziEv7mobke26ZcHJPazDYOU8NQwWP8Fn7Zen0ZfO6Kj4XSKV4HzeMZ7X1ueGjPpAxtG7s46ey2q9hSx8ne3D4gBfXDYoCIh235dP6nux/bsnI9gOVfEKwYLT0wfzAyRwUGLik5l+r0NONOrha2y/QhBcQXDbtOfbdi6XMfpKjm0W8Q2N4tAhmWKxq7+k9bUV38RJuDk/rS4f+yvXf7nPdV2ev+Y7X8IGwbX4eklcT/ai1OLHgwSLFhVkPgrT07MMVn/fpHWLTn/Cb2zQgjTQNWgPoLY+9P03YtrAKBw+MHTT6iN2RHsaIRNsGMenJ17ewXJw2bnD6dn1c8Zt5HyvCAT8tgNd910pX1KSA8sl2flRPNn57PQojlvXf7Q+Pzf4upoaqSGge0UgkKV7Mp3X45Gzt1UBIDudy+wd2enRM55xVLn4RRfNuQNtKpEqkrqG7TWBcOeF0zvxqO4jmCiEwdnhlMvJdzyA5PjyZ7xMGZTpYoGCbt3CUx8OoI1d2msCga4iLNu8lqYHdn7U6SHHM1IF/8mxwmX6eWNcy361AmlDNe81gUBWv2PRZ58s9hd+RztaA3E6e44dnhQr2Eru79UyNC3sNWmvCgTyimVq82jvqdokO53LMVpu4Ny2fzt8+EuxB19jdA0EqN5iDdIp8+2dv3es0v9G1SUfUmJfcu5Cvb9VING0gA9sbrllwYJKdylCrOu90jiBgBXarNX3HzR39QMbz1m91Tln1bfzKuPicq7PdvR76Wd72dmyf1U0PiI1MrKHSDsR8j/dxB7yy9YNSj4ScGr+6RyYuStXCV6vxbpXdO71m0Y5/dkLMO+fmcnmRtNtYrrdK3b1SqVtltE/a8OXp+2QDUw/ANrZX8RevjcMcGPEyQymnJydlLjFwJYyPry9acOlp5+VhEvwWSs2X4k3Ff8Nxn0Sd03u/NYlZ95aDr8e2uo2EM67+eZs6e33LsaPaH2VDCUWfyqLiZNOP3XdJad8R26eu/I7V+P+wxUOflU+epYHeMnuZ+cHuHQTELe2HOfw9YtOo0fdY2nOyu/9A34NaBt+q/pg8dIpmIh7ZbbdZen2jOIBzoObp02jG1B1l+pyapi76v65xc73PWfkWr5KAeAerj/ppHZPbF0zc200X/8Ub+y/R8vnQ30pOKWbsVbAbVnXpfLwHpRdfxBG9Ih5ivSwrReLPd3PRttmLb3/3TOW3X+HZff9n66bB9PvNvAAI+5/GPqwrJl7oPU58xfTV24ZH6Wvh3pdjQg0pHcV+jZksm3TSsV+9qHCTriJ6zjP4HX96bdffPJvFQgULfrsVd9+FOfkWPfObxjLDY8wLFYTSC4mfqPawNpjy8bFp8+M4QEwY9l9Z+DG+WoEwP6qdpZHI4Rl23Pv+soZ61V4tYLVTSDAsfqc1Vt/jvvLn6J1gCqREfH7WrsM3TwdU8E2FY4Mm7dm0z4Fq7Vd0+jWf8oUIbEypq73976+MT/j7SROU/Obci0t+lSsD9ZjKyO4xe+NSkxnmBmt5BS/edelU+czrNZ5XQRCHsP6c22HPYhLs+Njt5I9I2LnECe281/7L/rtEXk9r46UWlvTkz99+QMf0+3ij/G8QjtNa6pkGBn62Z9/3viVM7+hat/TsNC8uqeFs7zn2w4/RgQBL+zIeHwQEoIAv/u8Y1hby7h6DwJSd+PiU//btocchiBQbjpRaNCT0niS+qazlt9/GNHUOtVFIGAZhucJ4ie5v6gTT3v1TbnhX05omFu+d11x4gu6rX2dgpgSOd8/EOQ0UtCVhWGXxNNNAqmGf2oeCFggjsjksh/GGQ9Dhf+RXYTxdO2PWlf/8zW008BE26WN+I1p8UEycjwfATP6LpLxkTn5dYpv3wVYe6JU80DoKhawmIsnPnuoBTbs6daGxoeMOFldQUrW0Ne8u+IhvWiM4AP9zL2hFWruh5orsO7iU/9awnzJjudcthyMth/q2LJtrJRp7RmHyxzf6ZLzRX/p04W4CtrZqR1U8wdaax4I5FpswHyDLqliCYai4QBto3Kt5vmx9joH2LbxJfH2E/Sk4YyCnJzPUwT1GUuIrZW+17AnulkXgdDXW7rcLhXfIKezkUROxoP1LLyQahrGilkrNp25J4wyGDI+f83dV+Oy4Bh2PPfN501XQlbplbsvP2uZD6thoS4CAc/678SP6X5BN/FuC6fIHEGbTI5j3j1jxX1fZJR6zKdO3WR+bsm93zCyrVdg2E9UEfcsOjO2Rq/n10Wiaatu0oxlmyfhlblHMakq5glXTYoPjK+/NrTuYzdcNvuNulEeipx1zT1jcWb9UNPxqqCYCOLaufGt48Um65B7Lzs79txEnGLPQOoqEKjL05dt+ZSha7fi2cPDYh+/pHkCiV5pp30HvAd4H16Lvn3j4tN+IBpq8GdSPp/5x9xHp0OhOXgGYpL7qVtXT/dvoFQ216oV+nsfzuqFuXdePvPloKX2pboLBDbJzOWbV9iasRBDaNnpS7xsa9vdWFOshZVvLmi5V0drfyhh2/odudykoV8brZmtWfugomZcjBvTc2jFx1vjIed7gUt9wk0rvJyqzb/nimn3ch/rKa/bQCAjnX3NA/uZGXuu5liXZLItw2jRKA+5stFpBS4WmFbpL4D/D942/b1u678Gwe9KRfuPA33n8JQVtw0fVhx+sKbbHwevT+IV8o9gtXIwPtk7ijbB/I9dS04HHmID81tLm1bs7XkRD1gvK5W67tmcP3cntdVjqutAkA02c/l9F2C9uBDrh/fBym24EY1mORRkbNcR9EQRng/AVGJopQJuJzr6M5bhPK9b1t8wvbwBfsG9AN3O4C3k4bjBOQpzzr74DN8Bppn5oAgwINLr6GLByjIjjhfS4Xy6OkDCG9H6c1jMLL73yrMfDGtWn7WGCQTPfPpZV9/zEVxKjkF9Gubk441cDvsQ2JASn6EPB4Zfg3PwEr3Y2KFhHGHiZi5E8gxdvlIVf1CgSz+ROHdr/l8663WMRPTYXLG/tx/RssU29c1Gwf7NPfnPPe8jNkCh0QIhZtLPL98yEVFwOkbpDjzLMAquw4pdHPRNBeFT+uP613NsjEsAiGK4BsJfYkUB4dj4GKfeDVldGCV2YHXwkO5kN9991ZlPB1war+T2s/H0VmpM83lL7/CRrdnMiIJd2Nc0jQ/BdR9GFOwPJ74fRO9DbOyDuQJfgMFDbsxFOuPxCCQeLxS3j3FpavwN48IO/MDZ846p/wln/LOWab6KbcJd2hBt52b3OxDMpaHz/wevkt+oTueGcwAAAABJRU5ErkJggg==;" vertex="1" parent="1">
          <mxGeometry x="280" y="731" width="60" height="57.23" as="geometry" />
        </mxCell>
        <mxCell id="R7s_IrtqFpmnAKjUKmlR-19" value="" style="shape=image;verticalLabelPosition=bottom;labelBackgroundColor=default;verticalAlign=top;aspect=fixed;imageAspect=0;image=data:image/png,iVBORw0KGgoAAAANSUhEUgAAAIIAAAB8CAYAAAClm2iUAAAAAXNSR0IArs4c6QAAAERlWElmTU0AKgAAAAgAAYdpAAQAAAABAAAAGgAAAAAAA6ABAAMAAAABAAEAAKACAAQAAAABAAAAgqADAAQAAAABAAAAfAAAAAARdinsAAAfV0lEQVR4Ae1dCbwcRZnvY2bee7meQaO7+OOHorBCFETxl4SEkBciyClXApqbEOKCrIuEELl2VshtEg4XBISESDgSghhROSQEFUVXXXVF3NXlUAJyBcK7Z6a79/9V99dd3V09M/3yyMzEqaRfVX31XfV9X1dVVx+ja0jLv/0rh3JOjhOqMljkyS0S2kDpy9BJ3P1iFN3RqtIukV40RJn62PECS6tMwphhHiFoZSZhYtQEvcckbd+ZGYvNECDJ8SFFmTKaM6conPgqYD6oDJ2PIxWi6Gk7HqUXrJVASahU5L5UJmFMiRjFELQykzAx1cDA5ZG25wGrRLFoEIEQoLIwGaIoJ3KsQF+GTiEFARqGpjVBlF5wUwLDcrjG4kXOFW7088SGwPkpZPpsUZDlpu078akoVkJwRwRZerQsIceaogC5XoZORuNyFD1Nx6O0gqcSyNLiue9OFPxyDK2KlpRyZRFMmqbvTM+0XI/lFRBiI4JgUIYo2RSgLEMXVUyFmtYAMR4xQFRquM59KU/GWGFaqvkt5RnECT2ITJa270K+r4BChMxc0cwgRnMDgWvc6uWJchLwI+R+VYWetuMxHjGAL05Z4L6UJ2OsOAu/pTyDOKEHkcnS9p1YyPRKIRURyvMIjQh+Z5WSqtEmIFTpldYAPg9STE8pn9BZHb/AADlPbvRbfEVkusplInN5+JwqE0UwEkUnNgQMqkDxkZPXCCm4qFAH7HRWLcq0jC3lpigZs3NzGTOhpTyDMJFUY7K0/ZZYJJ/1zFxGjpSrQIlQhKtlpwYXlU5FbYuua7ZMaodq1BIGCCqZIFKOukTgyyyMShwCiQ7oGJvzQJwsKdwatNg+fVAIOCSV7ICBr4BeJQNBCr1DXQ4JkpjD+Kqkkq/CQ4S16rp+sr9N4EWNA74MC00NKia6YWjjRn7i7I4OvaRqb8Lq3wL5u375HksrvmaXXBf6ISYNI7FAkNrcHgLwxHv/YNR/d5saJlmgq9RvtGCE9QNAgeiuERQYuzPXKeQ0QbW2gHp28S8l3EAoGyu17kFT/qBZIDbc81WNFt9iHjShTUb1ZQFpZRmfACL3GhQBg2UtyJ6urz41tUlvAQdTgxsA8TAgbuo1ghwRSXNLel2aFDW1AAVAPAjY1e5VA9dqqmhT+DtlgWFg3I8YiLpZDgs3EN4pDZp869ICcgCwgqFAkBE4enQAD2HsZt6wFiDfyv6NdsRdI3hQdn4YqRx5GLNZa0ALeE53AyHk61Aldc+u+taTJzqmPk9zdHkbXfAJ1p2xpqrksGbIW0q9hYuWn9vx56oIm0juAiFypstVaWpgM0etBvjoKCy5bpj6gWYud5ot3ZXiGxuBhPQ71qQ0URmZrFYq9F7QDIJkH0RbugAwA+PHFo2E7wWCiyXh+ktMWiOkSrpuW7i5YdlWKjJGlqOUYSJHg64bmmP1Tr56+qTHQ23NSmULwI9q27oO9qYGVOhWpxqzshAJw8KNVV2cuxIwoUjilGJZD68Rt1AFIsAnXz2jGQQJ5qwC7DrdvWfOZZcsmBrY+FWwGyiKSoQP8wsSdw+GqaUvo9mfzM+Y+AeptVms2gI0ObRJ2G4Q+KGAQhAIEpooelg0v6e1Pi0KiVzlW5e3r4KoJv6hqcBxejXLmpSf3QyCRDtV0eBvMSeYPhQIsuP4NjQt0ILVfmWJYo0IIpmXT6UE+q2iEKDg/rltv6E7/YctmX3MjjBWs5baAnShpggC9rMIBDuwfmr+SoKyw0FAkSSWnoqybeslQ8tNuGb2hGYQBCbbrRI7XcUkNCKoENLDKPTUY0iS42UZtDDESPCCbWiHL50+5k25rVkeqAWGYTBQPGkojRCJF/TkND7S3oYWawSJ3udTRT8oarNvZg5dPv2oZhBUYa9UKGKkBgXnEnEoENhhlAcpVAnASSVsH0jPQCRhJcLp0rP/XYWtF17//ZZEpGZDOgt0Az3BjXQxQIcIBA4AnzsDOPcbBrfAStAahQ/aiMLG0dFD24c9MrjSmtzY3nLOVglGBHY65aGknu9DKFVWZAXI8SQpKo1YEZ6ZyU5cvOGJx/Kbns5Vyb6JlmSBoa5No81sf8rdQIg5nwiDI8qgUt1dI7hDDjmVz3ZZcCIPT7BdKkI5Y3J/7+vbE3GbDVVbQLY9l31i2DwYEQDdHef7TFGwwIiFUV4xKQQTHQWQbmbGLV7/o0fPu/mX2Yp8mghqC9AaQU6yvamMpF4jyESDXfYEc9SJ6QIy5MCRwwh3sDRsME55d2vXTwdblb8bfpga2N4iV3Q8NCIo2gcHJEWgmclBF+tO7DY8Q+/eBUkOhQBKJZsuQ4zMEZeuf+LhcEuzNhgWIMsnBgIv7Gh4Tp0kx1ME+i6G44vFwtrlsyfNamvLTEBA9LixEMiIkLqBDAUsC9elhnHswvVPNEeG1A4JCHxfAMRlMnIoEHhRR7mPJEoBo0ol3tJmeuZkmCYNT1evmDPxy6RDftqRO0tZZ388wPIc7URSANCJH9AFZZaJHUctY5rjFt3xo+8yrJlXZwG2q8AmY8sHgCIQOACqY1kNFoulHG7GaW/bxcuWz554lUy9+vMdr7c5zidKmt0VniZkrHCZ3ug1NP2khesefyrc0qwlWwC3oSOOj+Im32sgQkpe5lbS/SUWNPSXStb8Ved0fFNFnZ/b8dbCDU9+SLOLT2Ej6YM0JflJMEAtAqJpwjQyYxZ+c/v3vnbupBN9/AEW8nf/7BQIORPnRZFYuOLs0LcLYqyBhNGuBdPb9UumT/xFrL0BAJJZFc8jyI4QRpHRK/fOwtyAm4ciAAkbM/s8BMHt5Si/Nmv8q4tu+8lhdqb0gu7oI9kVREMfwVAl3J3UzKx5wsLbn3hq1dyJ4zDqpFNUYgoRh2cyuZnFYr8EVRd98yDCodutS2Y0VhCojEQnn7tGoN7hUF3Kqc1RHkrCcBRLunPCqtlHlw0C5rRy3oTObKF0MM6wv/CawTc6I/m5K4EuLfHa/5hLbt/+fb9pAAU69921TJjYM4s7qiJaHLGIgdEMrHds+7IlM8afF6ao35rnE9fH7GsvJ61FIDBS0A2GcB60VCrhKXbdsbClZBqnrJ496QeV8OX2pfOnvNLdq492HPs1MafIjWLAjusDXFxZZj5zybptP8vnH0+e6kK81JWQ44Uo/GGgkE90uoaHc5deM2PCMjWXOoRiQ4mvApO0c0eEkJHJAkH/yQ6pkmO8aWW1MatmHvVQKjoP+cYLOrqyVtvH4OAdwaVloASVxIE/7CPxSRjHGNu1n5Yq8Hz9pLPdZ+p1nGW4VSx6HXv2kpkTLvdpG7gQ2JKnBqkz3HEGEXKatGrOURtWz5j0n2loorhL54995e3i8IMQDC9hkzkIU1/zKAVdetLIYE65+LZtTw7kFjb3k/vPOUvCTTASctnSmUdtYFgj5r4JuYOUI7lTA8pUV13H16qztyw4oqdg2Z/QHfsV8aUyV1+hDs3n0X/UYBWxHa0bR7YMaa1qXcJ9E89ZejZgmJzTsCre1dCdE73pR94SlVHrskzPMAt7RZwvK5uwRpBRale+DmsGJ1v8EDadXnCfwnXdH9OIggQHvQCDq4lXrIJ9ZQwnBUCwg9F4f4XqYsQxMuP7P5h5KL/u8cZ7aIY6EU2iowAi99YIUQxqRCsfoxXtewj0tVnHdeM1urHYVdxFCzVSOnZ4usBZr4+w2j+69vwpz6ZTD9cNsuNRJjF+8uxAt8YRbcf0Gsb2qVOn4tKhgZLCbgEotkZAEzvf6yNV0z6zONjmWTW342+9hRw2m+wX4lcT8A02LtD2slPoGZNfcMTraeVjrRhPNq5c6J0KpMBgZB5Ly2SyYw444YIfLtzwMN3Xa4hEfaAU9CUoEdwdETzn0+YNxwHnhFQP6abzj3qz1Rk6BtfynaILUJAvieyStSNjdP/T2vNPSjkSeD2jSJD4YXgo6UZmsqEbExFgePw3kEV2KRYxMhjGJN1pfQyUDbJe4GmVAyDsVXeNgDbqYL0nuppw9MIH4Bw4HEtIbOxA7Rctxz5y5bzPdu6O/rSlJFzqOC9brdlDl84a//slsyb8EuuTqYgTWoX6ZxPJoSDMmJkxi9Zt337Rpp/K75Ptjho1o1WsESgiokfN9IsJXnvuZ3aWzNxYzOrdWBju0NrbDrpuwaf/EkNMBYCr0WXHsnsLtjZm5dnjnmHylXM7HsAe6Xj4vSBgdMbgoF3GUqFIxYnZzsKA9kxYRq1yryvieQ8vEGTHu2HAyhFyvaUbzpn4WjGn7Y+bTx1rpx0p5vHd1FHHcxLPGo6x/5pzjv5rlNfKc4/5haNbZ2B0wJape8tcxjFz2YkLb9/+2MJV9blmoI9pCQ/jD10qk0/pYR+eWqkvoRFBIBMUBY4WqtZj+o/ZU964/gvH/mkwdINzX7Fy9phlCLAkfqtmdzxoWNoE7FZgZGBLufNusUAgZ7L2rtz3kuhrDacRjBxPurt5WCMRCL7TuX8uOpGEsffSGh6WuYmejajUvZXzO57CCXUKDClGBrrkFGeVsBQuwXKZoy++7bGGe06C+hAaEcgQ5Hw5AORyJUP9PbSvPmfyw9hnnIQjuGftnUC4esGXYkqXNYodRBCLUcKbGlzXu39FJ3hk4LxReraH9Fw979M/MTXzeJwxYpYgg9JDubZlf/ba+cdt20NqVC1G3mJm51Mup/CI0HS8bJuy5ZXzJj2OpeNxuJQtkFFL/X2T15w3eWtZolo2hv0e08QNBEUABJETo2kCPAusXXDMI7hyOcnRnTPWLJjyeKMahnwde5AjOmSIsa9Re7gH9L7uC8c9ugfEvCMiZF+LQJABJFEeReTyO6JNk+kesYBYAUbWBbLg0IjQdLpsmr2sXMG57ogg9zkaNdG6jNss7x0WCK0Rmg7fO5yapheez2mwcKeGMkFQYURJI7aJWysL0EZCK1YJZfwcWiOwnrLzB/7aCHNr5vVgAdmnKn0qrxGakaCy214BkweIilPDXtHjZif8LQF2Po0Q9GgVjxTKqUG2GyPKsGa5AS0AR9LrCnKivQVOoUAgsBwltLgwAlymaeYNaAHX6cnOjK0R6B57OEXr4dZmrREsQF/Tao0rKrnWDYSY88M0+Wmj3ef1wuBmrUEskG1p7RMOlBwvTwvUjdDUEO0X0dEI8cWbHroWD/HiUwdlEh7dGbTk8YqxjAHKSXR7nYpEyQ4cJAMqUZTAsORwTUkggIxneAWuU6NcTuYQb+m1rSH4ygy6kdwRPxB8lMjoQOsE08x+KcbeJ3BbHLz3ww/4lxMY4yMDPJ54sV5AmZ+PUuHdItWGSfiBC5+TogCtI31ykarnIDOA1UIyynGR5TKV4xEEdIrHyVhCTO+oB/D6Hn2MLClBgWCNIGsTIaAPUogUERhUg1KEtGKVxaqcWIl4IDRRnrvNw+tAWgtwv2V94jziEB9f0RR1v4+rKkQUcEeECFDQRQQF1aCk4l8OxmIGYvyB0ER1ifKgV93pKOGdRnw6B288F3DgLaak5HUgrQW438xWTa+GChpFUyqnE5OIElGW8sjjzoWE4WFx0RXKNaFaVX9INh/R5+irYkCqgEHUgdXSEh7TyzzEr8Zp+qulYvFfnb7e1hvPP1bvMneNwGv1V0HaW6H3K70OCD7Er0rh3G/KOcUtyBAJKYrsNZEP5H+MlpjLCnhKlJHmTusX3viwpK9CqURpQYPEYECOkx0VcE1XqoaH+IUYfIDD7mk55JbFn8Yb1uH0xRse2bdo9/8ZvxvRRoavJsl9Z/w4ZRzCuCox1coWPBQKlJEWiJWQxIjg1umv1OKjJxdIPh3y2V6NM5ijOMvAIA0N01Iu01fNw3FKRjE7VhUExPPrFx77Ek6PcfQ9hsTk9Zv7T3hkOflwaeMQFx5Hls/2qoKAhVPupTLSGEX4i0l9IAreVUPATG6UyyyvaoPLxF65VrS+KugE/v/8mc7cyz5MUdi5s/eZfUYO+Q2aPs79ltHU1lJDBV2kqSpHhwRGGKAtDpEJ3LJKd8by6T2kYI3AGFKe9J6chFK2OKAzVuIo00vgdEXqKA7BC5S2rr+wPd/hXQapWW3OTy2CaodsSDIcHwEVQyiPJEUTBUDVQeDpLU5hsJbZKaQJ4TKJrDtr5vOQEb3GYB/B4x49a1UMmbGcR+nktmrKu0svZHjKJhnKxbErfvYmn/93fYdzhG8bV/8yXCNNVTubDRMxcoQdY4XyCEmojSo+j0qIHqUYEeQ5PsaxDECcZRA0UCfuLr04W6ijng7Ued8ASXrrxoGVvsf49CGHZLAPd2D4PJQYsiDOhVz3bK86CDy9VWe8JClWZLJYg9DB05iRKK8yRaI+mWqgzpY57hYPqVPVd0/EiKyChq/EH/riPt3jAPxxqEGqtL/UdpqeyR7g0J6CQljVzmaeku4EUrBkzFAeIQu3ca0cEuNEchWJco3ADhvoGauiZ1hEJ3WVNPUOXwdgkgHLGVEiY3Ifn2kt+kUYy9k2/9oHj1MJn3/d1mn4ZM49Nn0eh9RQ/FPR+TC2sqy/pzfr4ONKBUFG8qSDm5lO2IJ4qZAYOZLLqFyOoIiquEg6/+s/AG8SN/C0u/TCAhCfVguV2nEecYj47E6p9H3d1JdZxcJfDbPlQOzI5/HV9/F4o7l6QygUiEtTs1OQCsQQfRKSmqUPrYpMQhJTQ1onpsX3teOCp0Cow9xWJme9KXoN+hIqUpwHQQgj3kL4MthoaTtBz2ROyGH5SGe+ZeFTOLhUMo2E3xEjBSKsZSl0TybJNqy70EH6I9PzySA1V1VM4h0iLoNEfec1Ak4But8lvn4sRgnRY6nTbgdDaofkVKx4iqTloNIfH77qtYulG6Cuxy7dDVoXG3/phlyZWwuiT2Vu2sl9hiaObTjTYbL9CK7Sm/F9G5RDYuSEvCpSgcTu9HIIx8jHXKmGw7BFIFiG3qGX9BbcOW0xda0Vr3u3aXZpiJ4xhwJvGD5cNQJxMhyRMszWtWFgOQIM8GkenX59ehh24UbAKUPx/cEs/aQvhZP77UO3yxREHEgil+qgx39XH7p6iSYlxNG6b73oxEujuLWuz12zdSw6KgKBdfH1F05hqJuLex7euScyDDcME58ddoHi/BR1tOM7TiDGqQB+uEmGzOmGuTuRdwGnG6bsxBUPfhHHoF/FoTca8LU54DhUtjoB78H3XnozptZbsow+XbfARO8XgXDLBcf/JKzi7tUuWrOprXvoqKFaf1+7XiqOxFjbjp2cdsPQ94HC7ehPO3w+UneckRiHRiAA2tGJdyGGhmuOjnHZMdAJA8oj9mikwtMO9H1dR9ylp1v2/eADm+nOeTd/d4jd41yG8Esxscv988cHGagsCx9AG06kAwxvOp3t16zPd/Tp+D4j+tADH7G3kOPrlTq+vgTvIShwHrlt+KZRH2C7dNPZRc7DDyHvgpvfAvIu9HuXYzpv4uGUTsvR3rJ0a1fWziEv7mobke26ZcHJPazDYOU8NQwWP8Fn7Zen0ZfO6Kj4XSKV4HzeMZ7X1ueGjPpAxtG7s46ey2q9hSx8ne3D4gBfXDYoCIh235dP6nux/bsnI9gOVfEKwYLT0wfzAyRwUGLik5l+r0NONOrha2y/QhBcQXDbtOfbdi6XMfpKjm0W8Q2N4tAhmWKxq7+k9bUV38RJuDk/rS4f+yvXf7nPdV2ev+Y7X8IGwbX4eklcT/ai1OLHgwSLFhVkPgrT07MMVn/fpHWLTn/Cb2zQgjTQNWgPoLY+9P03YtrAKBw+MHTT6iN2RHsaIRNsGMenJ17ewXJw2bnD6dn1c8Zt5HyvCAT8tgNd910pX1KSA8sl2flRPNn57PQojlvXf7Q+Pzf4upoaqSGge0UgkKV7Mp3X45Gzt1UBIDudy+wd2enRM55xVLn4RRfNuQNtKpEqkrqG7TWBcOeF0zvxqO4jmCiEwdnhlMvJdzyA5PjyZ7xMGZTpYoGCbt3CUx8OoI1d2msCga4iLNu8lqYHdn7U6SHHM1IF/8mxwmX6eWNcy361AmlDNe81gUBWv2PRZ58s9hd+RztaA3E6e44dnhQr2Eru79UyNC3sNWmvCgTyimVq82jvqdokO53LMVpu4Ny2fzt8+EuxB19jdA0EqN5iDdIp8+2dv3es0v9G1SUfUmJfcu5Cvb9VING0gA9sbrllwYJKdylCrOu90jiBgBXarNX3HzR39QMbz1m91Tln1bfzKuPicq7PdvR76Wd72dmyf1U0PiI1MrKHSDsR8j/dxB7yy9YNSj4ScGr+6RyYuStXCV6vxbpXdO71m0Y5/dkLMO+fmcnmRtNtYrrdK3b1SqVtltE/a8OXp+2QDUw/ANrZX8RevjcMcGPEyQymnJydlLjFwJYyPry9acOlp5+VhEvwWSs2X4k3Ff8Nxn0Sd03u/NYlZ95aDr8e2uo2EM67+eZs6e33LsaPaH2VDCUWfyqLiZNOP3XdJad8R26eu/I7V+P+wxUOflU+epYHeMnuZ+cHuHQTELe2HOfw9YtOo0fdY2nOyu/9A34NaBt+q/pg8dIpmIh7ZbbdZen2jOIBzoObp02jG1B1l+pyapi76v65xc73PWfkWr5KAeAerj/ppHZPbF0zc200X/8Ub+y/R8vnQ30pOKWbsVbAbVnXpfLwHpRdfxBG9Ih5ivSwrReLPd3PRttmLb3/3TOW3X+HZff9n66bB9PvNvAAI+5/GPqwrJl7oPU58xfTV24ZH6Wvh3pdjQg0pHcV+jZksm3TSsV+9qHCTriJ6zjP4HX96bdffPJvFQgULfrsVd9+FOfkWPfObxjLDY8wLFYTSC4mfqPawNpjy8bFp8+M4QEwY9l9Z+DG+WoEwP6qdpZHI4Rl23Pv+soZ61V4tYLVTSDAsfqc1Vt/jvvLn6J1gCqREfH7WrsM3TwdU8E2FY4Mm7dm0z4Fq7Vd0+jWf8oUIbEypq73976+MT/j7SROU/Obci0t+lSsD9ZjKyO4xe+NSkxnmBmt5BS/edelU+czrNZ5XQRCHsP6c22HPYhLs+Njt5I9I2LnECe281/7L/rtEXk9r46UWlvTkz99+QMf0+3ij/G8QjtNa6pkGBn62Z9/3viVM7+hat/TsNC8uqeFs7zn2w4/RgQBL+zIeHwQEoIAv/u8Y1hby7h6DwJSd+PiU//btocchiBQbjpRaNCT0niS+qazlt9/GNHUOtVFIGAZhucJ4ie5v6gTT3v1TbnhX05omFu+d11x4gu6rX2dgpgSOd8/EOQ0UtCVhWGXxNNNAqmGf2oeCFggjsjksh/GGQ9Dhf+RXYTxdO2PWlf/8zW008BE26WN+I1p8UEycjwfATP6LpLxkTn5dYpv3wVYe6JU80DoKhawmIsnPnuoBTbs6daGxoeMOFldQUrW0Ne8u+IhvWiM4AP9zL2hFWruh5orsO7iU/9awnzJjudcthyMth/q2LJtrJRp7RmHyxzf6ZLzRX/p04W4CtrZqR1U8wdaax4I5FpswHyDLqliCYai4QBto3Kt5vmx9joH2LbxJfH2E/Sk4YyCnJzPUwT1GUuIrZW+17AnulkXgdDXW7rcLhXfIKezkUROxoP1LLyQahrGilkrNp25J4wyGDI+f83dV+Oy4Bh2PPfN501XQlbplbsvP2uZD6thoS4CAc/678SP6X5BN/FuC6fIHEGbTI5j3j1jxX1fZJR6zKdO3WR+bsm93zCyrVdg2E9UEfcsOjO2Rq/n10Wiaatu0oxlmyfhlblHMakq5glXTYoPjK+/NrTuYzdcNvuNulEeipx1zT1jcWb9UNPxqqCYCOLaufGt48Um65B7Lzs79txEnGLPQOoqEKjL05dt+ZSha7fi2cPDYh+/pHkCiV5pp30HvAd4H16Lvn3j4tN+IBpq8GdSPp/5x9xHp0OhOXgGYpL7qVtXT/dvoFQ216oV+nsfzuqFuXdePvPloKX2pboLBDbJzOWbV9iasRBDaNnpS7xsa9vdWFOshZVvLmi5V0drfyhh2/odudykoV8brZmtWfugomZcjBvTc2jFx1vjIed7gUt9wk0rvJyqzb/nimn3ch/rKa/bQCAjnX3NA/uZGXuu5liXZLItw2jRKA+5stFpBS4WmFbpL4D/D942/b1u678Gwe9KRfuPA33n8JQVtw0fVhx+sKbbHwevT+IV8o9gtXIwPtk7ijbB/I9dS04HHmID81tLm1bs7XkRD1gvK5W67tmcP3cntdVjqutAkA02c/l9F2C9uBDrh/fBym24EY1mORRkbNcR9EQRng/AVGJopQJuJzr6M5bhPK9b1t8wvbwBfsG9AN3O4C3k4bjBOQpzzr74DN8Bppn5oAgwINLr6GLByjIjjhfS4Xy6OkDCG9H6c1jMLL73yrMfDGtWn7WGCQTPfPpZV9/zEVxKjkF9Gubk441cDvsQ2JASn6EPB4Zfg3PwEr3Y2KFhHGHiZi5E8gxdvlIVf1CgSz+ROHdr/l8663WMRPTYXLG/tx/RssU29c1Gwf7NPfnPPe8jNkCh0QIhZtLPL98yEVFwOkbpDjzLMAquw4pdHPRNBeFT+uP613NsjEsAiGK4BsJfYkUB4dj4GKfeDVldGCV2YHXwkO5kN9991ZlPB1war+T2s/H0VmpM83lL7/CRrdnMiIJd2Nc0jQ/BdR9GFOwPJ74fRO9DbOyDuQJfgMFDbsxFOuPxCCQeLxS3j3FpavwN48IO/MDZ846p/wln/LOWab6KbcJd2hBt52b3OxDMpaHz/wevkt+oTueGcwAAAABJRU5ErkJggg==;" vertex="1" parent="1">
          <mxGeometry x="419" y="731" width="60" height="57.23" as="geometry" />
        </mxCell>
        <mxCell id="R7s_IrtqFpmnAKjUKmlR-20" value="" style="shape=image;verticalLabelPosition=bottom;labelBackgroundColor=default;verticalAlign=top;aspect=fixed;imageAspect=0;image=data:image/png,iVBORw0KGgoAAAANSUhEUgAAAHQAAABkCAYAAABXTBS8AAAAAXNSR0IArs4c6QAAAERlWElmTU0AKgAAAAgAAYdpAAQAAAABAAAAGgAAAAAAA6ABAAMAAAABAAEAAKACAAQAAAABAAAAdKADAAQAAAABAAAAZAAAAAA46kc8AAAwjUlEQVR4Ae19CaAcRbV2dc/MvTcJWci+ECCExSRsgbD+gIgssgaEbIA8QXnwFBB5ihFQ7zNsynNFQaI8ESGr8kQRRRAEWQVZRCBA2EkgJJA9d5uZ/r/vVJ3q6p65yU1IIv6/lUxX9dnrnNq7Z64x/0r/T3kg+merzZfm3Nm7W2u33nH3hp6mavrHcbJtkpgRxiRbR0k01Jh4QBRX+yYm6mWSpGcURSUTBdVMkvYkilYBshyfpVEUL6qa6ltxFL9eqZRfLZaiV0yHebdcNCvKq6rLm0/dd8U/k4+Cmn4wzW6e82DfaiU+Oo6jIxCXsVGS9IGlPWB4dxPHpSiOEcvEGNaEucu0YmEsBekAERg8DgUEHujIJPhnqtUO3KzB/SrcLy/G8WNVE93Rmpjbm08Yu0zkfEAvWu8PhHnNc55pKJs1I+JK62gTxcfGJj6qsfsWg6qVsqmUy6ZaqUjgrOtzJmugcjVi4Jh88JQtAHiWACY8jjYuFEyx1GAKhaJpWb3qLYT9tnIl+W1cqD7Xb3HhlbPOGscG8IFIvi7/SGuab7pvdCUqfBG+P6IQRX3g/W60J3E9jmXbg1hickFyxZpKbIzgiuxUcliKOSqwLycJerFZhvx2U+j2jS+PHzOfbP/IlNq5ma34ys//vFsSxx+LEvPvjT16bFdubzOYw8SKzHAY2oVApQYHJVdMIY5J6XMIlZLrkJlu7FlyRB4OFdrICsWS9OC2NStfAPTHJjZ3TD1+3NOh6ZurHNq3WXRedMP9E6OC+Sb8NAQeaQiV5nwnqLUFlwRpBdJSnBZT8U54Xsd6BVcUpsLTUhpc1IlDSzs+b6JwwdSP73VrasSmL4U2bTJtF//swWFJVJkMZV9o6NZjcHtbCwJhFzBeaeDpoJiiGTr738OkAOJsJeydysjgCOT6iSNmLqkU5cugHbBGliMK4dprmTc0dTdtLWsQ2Op/xw3dZl949Ji3M3I3wU1oy0YX35wkcetN912N7cS/w43FuK632LpzqgNAUPREa+u1WVH2TmVkcRBHhP3vZbOwsYPrhLcbU7lm6gl7fz6jbCPf1NRxY8i/8Pr7e5pC5bxiFF8Yl0q9KuV0ESgK4ch6itXx3gYHqIE7gvUNLNkoq1a3BdbqsXbWwAOAl0WYbJ8shFeOQcy113KlXO5oX4p975X9itEPzjp2HBdVGzVZ7RtR5BdvvP+oQlKdi+p0V9d5JYEjqFLhWuHQjBwpveLRQTGFQVo9OIEpJ8nTO9Knd06UE5KXpVLy8FBpRlZAGMLTuiYrk6R0/Jc/vtvdvhIboRDqel/ivnTD/WOSpPKtUmPTEeX2VpElwr0GW0hvfcnSwgE4NMgETg0KfGNBASAoKjl8rO73ICsX8lOHEpfaVE+OBAskWUt57+TnESIylem1B8KVhXaUGhpNe1vrbYVq4YILTxr7oqd/HwWV/z5EYKVz/T2fwknOT0RIYDzvqSALylU4ixQRnc21Ii+0OOANiiJDaOn4kF4xAGbB6d3mWiFb+6xBqG+SVJNTp544boaauKF5WpMNkND8k9/3XRU33tTQ0HRkB/aRmrwTfcFiqCwHIiR1bg5p6Ts3MUfuhdfAnZZ6cDUo1WJLVre1O3N1QurJYk1q4AEg1UGD0juW2Fs72ltv7dFUOe28ozb8/DiVmrF63Tdfmn73mEohegJDR8lO/+TJihObA8NVqlKlKAtReFhZlZodKlVSxi8WmArNixF8XacrxhtAgLPJwTIoQWfxIkK46sMF72zLyArs5ciUmOqagol2vfCEcS+pzPXJ6+zI1s1+wfV3fbZcME+CssTjOU59/NjAsiA3Fl4FHp+ASLCkSMGWB5QWpwKtUIFVUeYnPA4UjYFoIefFfYIiSSVRQypLocytbFsfa08Ks7aKvcqiOlg/p9JJoSRnqzVFWZRQdIhGXlJ7aReeFnUvJ+bZK255/AzPtx6FTGNZF19zc3O8fPiB32woNf0nj+rCDukHTicxFRyUtBi0StVZi7IQhee7G+GbvNfCTq9fDE3vNvVc29DYzbS1r5528fF7fQ0VZaS7lFILu0B+/o/vnFGIilMwgwt1xqGBJO8GB0tRuRJvuxRcqrO8cs3xqNSMPWKhvWTJQe0YsnBHC2Q9OLFZ+VaIXFORVogllnJelvomD88TUy4fDVYr1f+5+KS9PiX4LlysVesgbG5O4hWD77oxaiidIo+wqMzxWMP0LkBI0cGRBRSeiEMM5w1fOV+wwsmTA4VS6yFxLl6XidBaWU54rQ7aG9gl3O4C4np18fJdX/IylT7L5GQ4WSHOM9IGYwrFIg8j/ueiE/f+NBrUOntql+bQpcPuvskUC6dU8UxSx3xK5sfOg3b+YaUE6JCcS+QfAhdMFQKj3Sftv6Pp3ljE82SHt8KsDieKoCzYyaSUUKgoBy3yenMt0TXkDlADJy3+pXMtK+QSiHWetdV0lQV9W3vFjBjU24we3s+0lfHslknptY5OlPJWnR7aICkwhnrK8HlcKJ5x5S2PTncUa83CtlGX8HM/unMaWsklfMjMJl7DkGtRKiQzPIVMMLxPjyZz5sd2M4P6dDd4UGxuvPvv5sWFS02FkXPJi/UFi1BRKdhCFF7bDWl2HbvzenifCg2LjpI9Bv+8Ig9GSPAKRWPJHLLLcDNu+0GCePTFt83vn3gdOBxmpKS25ITkZamVeTiZCjg2rJTbL7r4xL2vyIsL72t0hcjzpt8xGXPmzKRq50yPU4M8wBUCS0LBGly2+OH9e5qzjxprujUUM9y3P/ay+dPTr6ugDM6L9QWLVh0p2EIUXs/7XR6SU6H1xGSCS32fOWp3M6CXPJf3ti98b7WZ/oenwe/sQuZtU6oApyDm9YIrr9tUy0dfdNK+t4e0YblGviLPue7OXUpx4W986OwNUqTmaozeh3kOx1a8zcDe5nPH7RlSyTB455OvmNv+8rJpLBWkxqlRaYlMItLJDYUoVRalLlHGlCOl11KKYykjJ7gJip5BtXAtcPpHx5itB/T0OBbeWrra/PSPz5gOjESaKKeuZiDyOlS+wvkwvdravtNFk/fBw/Ta1PkcWq3O0TcIdM6QuQkyvGluvBd8CKeeHK5390Zz9pG7E5NJP7/nGXPH46+ahlIswxOFk5XDb1VW09RmNYpIzkUcmp18ClOKLJiDnfuntMwz9MA7mCDcJUMe3FAvb8OpQXVUYOv1d/3dPPXKklCUGbJlD3PaR0abdq4/nKWUQVv5ySQgVAdpmFS+XRcYLJA6TLUQzbLY2mvdgJ5zze+vLZUaP6SBDNkURn0Ze2gBDcrDcV/Cpu3zx4+zPdAJI/nP//h389iLb9nW6oRRQgVD/EFjtjL77jhUhh5b8axkp050ipdVrtPv8QJXtxAJOfy4xJJf/CgwyENyLt56NZXMEbtvi+HVzv8BqTj/Fw+9YOa/lX0xcKt+W5jxe40MfJPWRQObWgSJTmmom3q0FngAMvayuY9eGerWck3PP++Hd+xfjcx9QGD8Q8pR6PCrAoTEjQc5Uhm7CDvtkJ3N7iPtYkH5/vjUa+a2R1+y2wwHpOyOctX826FjzB4jBwt00bI15trbnzCrWtpl6Nehx7JkNXqcL2SpsmAdzECTRQgTh9AwlStV2DTQjN9ne2mY7KU33/uceTEInrIwEJ87Zqzpn5tTr/ndU4b1ETpcshrSO+LTO2eFE+4yEpTxfvH+Xz1x70dDO2t6aMUkV6EtFGxrAGnamIQv7KEqKISFLY2LKa5k88F8YcF75pYHnhejQ/F02oQDdvLBpHzy/+cJe5lu2N4wZVttyB3gskS+Clkwa2irlxMqenyvBRPLH9qqr5kI22SeB0UBo86pHx5lhqP3VWA3k8qn02+4m/NmdjH5yUPwdqpGCsTqN2H21hBuh2Pa55MTrjpAXowq1cs93hUyAf3MD28/BU/V90+JbFjlqrVXLYFBKcgaKeM9hLSht515RHbebG0vm5n3Pmsdo9YhZ+U/jGX/ARhqw7RiTbu5fPZDpqWtbB2Amqg9nj1wBkPk4RzP9AZCtQp+mCPOSrNXpRW4tULr9gK2VTf/6TmRofbhkaH51GE7254Y8LK4dHWbuf+5BUoqeXdsbfbdcYg0kBChgZVcEM4uCPK2KoPTw7m22Njt0GmzHjlGUcx9QD//7Qe7YVf+HT4G041+SBhW3HtGCaDEmqAA+jExu2w7wPTNDTtPvLTIvLeypYZ+a2xnTthvx1QASgz+d299FAsKt0knFopYJy4y2HAkOZi7s0QWk8aTtEqvOFJmwLaxlDGylKkzR//Uq4uxGs8+BCngeO54DMMdOFH35CjQsVzssUGGaex2A+VWGj11h0iWwZsGVgBCQdkSXJIIxJiOVvqxel3znDkNDpQGtLW08mAQ9lcEhTKw9YJrq20Vi3RqoEY1hjlAe6E15tPc++fJcV9Iz/noSCwa8una3z5hlq5qtSoC2b26NZiLJuxn+vfs5ipvLSKhMwNFMQoimQdwekWJHJYUCuawvw/sPnbvkRg1MAE5veTBW27mwXkLzSPPv0WRPm03uLfZc+QA7ysVj69QmN8//oqnY4FTSN8tmqwJtBLEPrjWVEvv9NrgEuE+yChf7CVlFA0umG0OsExBDzVR5UIg8ejcKmGuSZRCAkEBWNB0HCmFPmXB/JiYkYP7qAjJuaJlr+PMoqTkG9S7uxmztW9LQvuX5xeaVxYt84sD0pGnUIjNf+BgYhC2A1Mn7GuO2ms7ONoONNYWS0ditZfbH66cq/hQs8L99odQ0G8JR3NrdSKOJA/E0D9+nx2EXnicxZwC7/7b6xIEFH06mnbAtnx67Z0Vpq0jGGFAcMCHhtbMr2q7TlcZOay7+9AW+7E24zs3Mba45yu9WPDJb/52cENj94OlVoohmxdigXpf22uphGpUsTFNpaLpix4UpsdeeMuUilDp5NL4DjSU43JDLfU8gPmHwZOEeyYG5IxDdzED0cqZuMDYblAfs6YNbxVqPYXUuodADokjBvYxY7FC3QkLG55Q2TNuZzMyBpYNkHK26pceDOw/aqgZ2ncL7xYrNTHvYdTI99ImyB3WfwsbaGcvbVyGuXRVa/rWI2G7jRhoEowE+T0ncUysP33DTz5JDEijFUZjbWzqfuwZt94qhsvSsakx+SrnThJrCrcnCrcrNLtME8GOnLR+9QYB7A0jB2+poiTnduRdzp1Oh8pvRIB3GJqlbcEh96vondw6iAonvD/2fiMDWrb86Xc8JT1D5VJZGfPZztv0Nx/dfRuzXW6UIH7RstXmIQyd9/39DfByd8aGGMnCi7DDxm5LMtHPofe7v35cFnG6QC0WInMXtl37oadpoq081nx10QqDbR+jIqMLg/IStjb9etptGOnZqPtgNLAN0ToxPPENfalBpUj1GWUzOfejvm1mm/LAiwGaGv/7dY+VqlF0lBy+C5m92IApi8JoJyufh9u5lj2XifitckdgnJukAlaUl9MbB/VcLYZp3pvvyqG9h0Eee+e2mKtK2muBfOmtpXjCwd7p26uwsGfx8L9eMEkwqE8Pc/y+O5gJ/2cnmSeFybnngecW2lt33RbHlb262zUHa8cPq7kS++L8gmfYluih1XR4VfrXF9d+xbQn1gF0Iz+Sgpug6JCq1/re8zhsub2dW6cJfMwZx2veGBYl1X71AkX6dcHzwWVQucjhwiVMnMfYS8UYrSkImnB+m4uneevdlWiOdsjR+lLuNv17hSLNO9ik+8o5L7CnHL7HiAxdZzf7jRom87xjZT/FCnwNtls8pkvTVn17ih9SZRa3Yk36YhwhW3TDOasESS4SLTbVFQh+PrHemrx+8UvKm4E7YiGBney5xEsLQ4YvLPcz2z8yNO4oxsNwu0UqPBWoMOadBbYuDpry5yBWlppD11EPBVtMeA0NpV4aT0eFQxHpnZSMCNKw9Xc18TTHyrH2yFEAht8wCR4Iaxfp6hjtGYjzEsVv9eiFqo4cgjxYb5Br0atxWvg8lTiMYL07ovahcSEp7IUjpAyDNYmCSRxqSGEeF2gIYStasq2XPack81XKwGq3YMhksMI0FKcvduFFCpu4kOWqN0yDMcTJLOvsJC1Hh0V4wtHVxPlNlLCa+MetkJ4GqYw3l6x0CynW335oXy88cAgTh2BZXjkaKzExvXtk6cjD+Z/22p7m/BwIUz3MJTlAvYWUeAlTEXrprjEiuyeWW1IZ8qogJ8bK4tVLDjEE1xrDyZtOCFOxWDBcCdpApZhlq1v90ZlCRw3vL0drcu/ks0G88vZyGbaVbuSQPiJT60wbOdfOwklUa26roDya05E33PU0hu0g+BDE7UqYuO1YjpWq1SEeEl/xgbbOrUr/5nsrZfqwVNZlMAeLpexUQfpwuFZ62lQvEZxBuZsMnKyR2TMGEE9VcCOyGGv7j72GH8craA0ec49wFoQ4LnLmL3wvYxsXM3Z4Iysdbz880nvujXcztE0N2CoP5G9eOLtEXWKWrFhjXliY0jagkXz2mD1lNSn6nRQuQi6b+YD5zSPzzZLl2e8DUd+fn3nTfGPuw+bJV96RrZEM6bCHD6gP2nm4t4XwWx950T7aQ5n28MO1wBF7buvpWGB9XkfwZbAmERKvbNwjsZgLE0cROS0TmU6oIxBbAGcufg4YKVY/vkA6yJP6l5NRcH0ynG/xAWQtoBWSbIFXL8RhmFm4Jw4wRCayClyG/VqY9toJG+qO7IKDh9y/enBeSCZO2H/0cAyfdlgSpFN1HU6P2GOYuD1ir2VSe5hHkLmqtd387rH55nEcNYaJW6dbHnzeLEagZZfLyiHx2o5Avf3eKrnnhceUry2CfEuCzBZ4ALEf6hKmNTgweWPxytRXzmlbbtGIxVJ2Tv/bK4sdK+U5qXWcTGy9wJI5Ty5vlcTRVoU9jpjCd1Ti/IrDL2qC9UFneyUqYPL7JHuLbcOWZgjmQ01DsWm/56lXsSWRpYeAybOypcMMH9DLcE7UtDXun3/zPWnJIAlSZJ6Eo4eA9ifYgz40D9+nZQJRSEZnDMXq9JOH7SpovXDeo+O5F+UwromlFgSF7wK9jTmYK+j/xbNNprBetH08tjy0N0wzMMzz7QS0JZe4LknkBIwHCWGa9ed5ZjUPQ5zFgRmeLBVjSzb0Fh3a4xlYwPdxYxCmz6UCLNuNtJ1QkmtNAsKFrSRMMkQETecvLywM0VKecOBoqagiyEMn3PaX+dIaFc783OPGyXFcVk9i3l3VYr5z61+kN/mggEiGHSeAbjg+dwLlUOY0vCoSY1uUqRqQ5OGjsMfnv21+A3u0eiIX8tlbxm0/OHOgQJkvYnp58qXF0kCUhz2P9EeP244kPi1Z0WLeRmPSoIgNuIDUJYGktqUIwRPbaa81USPnUM+shgfSgXP/PKEqtHAM31CQGmSxvE/MYy8sMCtWZ/dge+4wBKu+JphFyjS9/s5yc+Ndf0sBKJUwR17w8X3k4CFcTNHxDThtEQu8XY4V99TNV15G4XXKeqkRx5KHjYWjhdfSq92kZyPhQTzx4hPAyqjkzjhvPvng0TUiZ983zxSLXG87egjjPHnc3tvXDLd/RWPhnKe6KUx1Z8EWmsqs5WFgw+CykWAaSda4enlDRZQCmbskwqk+BQEj1PZKVIDj4uja32YeqMuW4N8O3VWGXd+AIIVz6UPPvWnufvJVp81mPA9uPuUgBLAgzuWqMZ+sXU439Hfg0ddpOPPVXpCn5/3+o4dlT6hcfTWAIQ/np20wxJ5x+K4ZHg6/3731MRxpYq1g3SBsXJEMxAMHnliFiY8B7336DQGpe8PAEqFiPN5SC8a7NnSy45HAVpMVhd0On/RpDDY4TKVb2PZtyo/rHpND+JnLE1CS7A5xjczyNa1mBObSgThu0zQAle2BhcIzeL4YimMAnn19sexXt3dnti9jn/i9Xz0i85vyh5WtF7RdMWcdtkd2qFNezbmF4mqVx4w8wGcKqqBkAAKKz2ossl7FAmnPHdIz2Wt++7h5FStbdmYmtYWjCd+y6NGUXQxde/uTZgmmC6V3XDZDtLz+wCkaYCvfkoZX4XE2gvaVwthDJx8HDSMyRIHAoCgk9ZQSURtYS0nnP/vaYnPQLttkzmFH4NCcK0oOtepQteHvr70jQwlfvv7pHU9mHjWp05TWNlarS2099ZBdZO5Vms7yHYf1xaiwIH285QT4Oioj4NTDhdKfn3ldDtZvxB72VWyP9BxaeSjiM3i8xwVgmP46f5F54NkFGT8pTxBKYbFwXFOCUFSmEygRSbGyfRg9dMqeGHn34VCjDslw56UGSnwxx5gPLk9Fnnp5EfZ4W3sHUMcemE95yM2WL7KcHDrpJQTzRbx7xADmg6j25eGct0YM2dIcvdf2SrLOnI3pWeyDfV3AwV6hzgjhNI9z6d8wsvBBg1+QOS18jeazR+9hdkBDCdNiNIRr8KKbraPFeB/xFohUT1qiIf4u8DHtExvJ6gi4VQPsl+z9j1Amk23ttqxXnVNUQEijsDxjZq4FEZUufHeF+Z87n1SxPj8FvemjY0fIwiovR4nCuVZhzPNwOvisj40NSdZZ3h8H9Dwo5xwUJpVNaAZDOnxCOEH8js7548fVBhP73W//6tE0+E6Y9xGVWpFOj0q2hE6d6Mz7Ryhx4WKKqZAkjxZ2/tjEOK4mZ+LeTiRpm/DRF+rgEs61AblQSIPRZhPwsEUuwP7v+TeXmP1GbQXZrmmBZsw2A0wj5rTnXl/iOTw2oPNIFEJ+hXME4Cp6fRJ7KPe0D8/DA/VwcoNebwMEivMoOAe3oMj81ykHZtYJhL+3otVc+YuH0au5TEpTRnKoREgcAFkW5e4gyMMD36BBduDH9a6IS21NC9Faltk2B4lsEi751pEFC432XLYOYXFszIgTYCiLVcLeb94bS8x//+Ih8y72Y0xcbHC7MvtPz/qWRrjIYa4yNCcSSXuQvbN7M/b0DUk742U2vvmQ8Tr0aR1DmQoLF9tcBH315j/jkCN9y+8pHCte+YsH5WxZfAEhrBNTuNVIK2pxYRxYZeWxJXsncBYD56M3LjPldvxSKNInvvHLJ/FFmN3kZ2WsXLn6lhS0hKAYUKKYa7khXb0Wxb3giQeMMnNxwlLG0WOaLDWvoQzF1+uZ3D4cin3lpA/X7hGVb105DxOu/8OTGBqDFa833HHn6kio2kNSBpunU4PxvtNfX3ob64VAlhMhmatYKF7leDKH9DEgArCQR+/Ii4bw8FWnH7yfaESL+WGhiCfo4Ml+7J18Y9s1C20dzDMJAO01whUI8kVhwh3yNpzp/gxzagfPawlXIldgS2UD5EdATpmltbooh4kHFScdOMpRbFi2B06AGAz77XRqh2zIdyqcfVav1NOp0TrrHLwAT1weQ+OQBZPUy/KQ3FrLgsoWLQLXXiv1U2IhI439R0LH6uyixMTgqxHk+DYvEtCbp570Y77GoM4igsmSa5l3SCoxKBKUSQBopUVGgBd2EqMQvk4SGi2KRaBlZP8VPidHxTGnIz68y9bZ+U941/9y9lF72AbkWK2etC6pXSCAXq2jalK7uErXssexAkh5eFgxxYlcR++ZgPQ+EqDzCcrtLava0TvnEmzHBCGofovdm3L0cYwYDRwV8aNPTSnYG6KGBiARRx7g9KPDvcgnrZNJvJclMGe241WcViYvh0d0R+xZ+06v2rA+OV8K53GhPWakhWEK7QJc0UEdU5Ctt/S6gNTXRXky4q0fxF+OR30nPiItFQiZesNqxGk4H7BIij/TPEcecVSTws+gJ33NgIwg8Q53DAIj3P0TMBjFWKUhUT7lKkEWTSpTK6xw5tQjydOnmrnvO+3Q3fC8Mn0/xxJv2JXz07F77+COJdGA0XpCO1OpzgZvuMPk6kioDwrLjsxnpO8ETsWKk9zJTnltCfJbk9jM4t3B99xTjN8tGr7+Z26eevzTEPEoHiamip1EyPKGaQ1VWWe91vKQz36oQ5IzjBUNextxKtM3IjILXB1IYY4QhWF4bZLPWDdm2hYnWPt8aJgcrlOu2AlDNbjOJKcytUvgahtuyCcfpXT37LXacwWFezoppKeYECd4AAgXXkcf45ek8dO1f/rW6R+RB8pDHnjnAszdyckTXC+NCtGJcpRFBidABPPiAJI5IxRHGBO5LCdvAFWEuyVNJjnDrEzH4ngERuIaXVYHH3N9dPcR6YY9I/j93Uw+aDQeIqBhU3eQ1OkMbm2yNRdMiA7qGPJosENSwbv6dgYnjeL4JmUcrZhI2IQr5/SGzI9jBoq3xsnCMQT+/Isff6dc6fgmy+rIGsWUho/olSHJ3jiwKEt7LUrckqiRyudy0eN0qbNETkhn1UFECmSRh/0H77qNF7ExC93xpd7dtxssOr1dVBokBtX22hDOsm1wlk9uxV/0gZfl5Oi99thQUp7e45wfyIufGPr6Nz81Xl7eKnSYk7B92RrPQ+HwOPo5fyWMeqrFpqugYKUXQKAKYTmfQEhaKhA6hxeYL/MOKU+TZfE0UlF7F4q0ekRM1Zx99DhHsWmyiQeNkuEtlK4ByMLSuZbVyyYbXIGFOBCGdSReZZMsJLW8FuLh3A9Xq0sb+iSyVcEI24DR9SdgrEgQsQEuPl8Y9SMyz/zCsUvQ9I4plBqlQtp6VHBdxc4KiVfQa8njUOu9QmYkVRdHOJHtcj6OG46XyDZl4qOvCTj44KEF7QiT2hXCFaY9N0MPL8g/qRMwKi6oYwqy9fZzpQpyDqCeGD+cUS4UD/vGxMPkhaqokFxPMrxOzG8OoYCzRnwf47RJ02bJ+n/GJZPuK7e3/EBPLygkE1hhst6lIWoMwZKIQkEqTENcEhjh7p+AnaGeJiVXEAWJLKL4kPjEA0ZvkrkzVWhL+48Zjt9Usu/UasDyNJ3BZTgOD8A8o6t96gyLcXX0ZCgICeGuTBxjUm1ru+r7Zx7yV95PmnYj3/SbLC+JmaTB70OxOmrENvReEjF1bG/Ox370NR5f6XGTD6xTIoQohw6ncgvH1aJsMBwdcWpgOtd6QidLMoqVj8jDhe/c7rXDUDMq99VDxW/snN+4PmDM1pmX2jSAzMNUD85QaI+1+AwHsLXBDeWoBoVxB1KuVuZ956xDv+QlRY33IsjyXhhy7GBcIhOWwcMmXTrrhwTNnTixskX/ptGVSmWxCvaBBZ70Xe61FICPZLkoqWytHHXnI6m+45v3J+Nx2+ZM/KpjT3xnhfXNJ+/oHKIe3FbbBrhWVFD7UA0IRZaTX0kqC9uifruimwrV5EtnX4+OOCC0zQeUPFwgxXHhM5Mvm/lR3k8/69g1COLhMX5AkEwMoCYGlx+FhzgAJShqjOdiwaL8aVRIY9FaOVYmXSHz4fUu2w40/fH6yuZOZxxhn7GKra5uoQ0KZx6mEB7iWNaeG9LTOfIPeBHl/MUb/N4fcR+d7v7O2smXzh2PBypnhHIpK0KUs1YQyK/sRdHOM6ee9AyJTr509kGYcO8EMH1Jhist0uKTF4Cu74dp8ksCjMlepZheABS4o1GE0lIaHbDDVv1MT/fVvlCS0imfV0J5MM7K9lgp5FQ5ZB27geGJ1AsL3hUbQilWbo12J78+nEj6J5/EZ7VgUrMKrXgj4cAfnH34Y+SbdNmsPQpxw1+rFb7bG6QkWVE3oI7krQ+VJ27V3BzJ1D5p2tzDS02lOyo4xK+XNIibOrisIOstepxj1A/qJ7VB4AAqnnaThnjCPBzAkEc5+CU0T+NKeq+6KJNJ4HmgRdUNoPDUoddgK6rY0GTKLWsO+MG5Rz1AniO///3G3isG8cFrnXdUk5bMkEsGTVFcGDKvNOf5T37np3jya8zsr0z4Q6Wl/WAMg6tZeXWA0sswIuNE6ATQAdbluZbCIFjkU5aT58BOpx2W6EA+vw2f4SqL4MjEBCBtUHtJo0ERPY5GZAkD9TsdnkCIKEzkCBgXytJkYTmgQ4r+kHgtcKUlOT4rOlrb9tVgTmme0R/BfBFDbZ1gWqGdBjThN5ETs33L6m73qdEzvzrx3rhQ2hWK8KNBVJhWUGkIkwAiDx2r8ExwQUOra+QAbOU7HY6OOhwqs68N51qhsWJZTJPqQR7ua0UPqESu6mEuMBtY2ucVu4LF8GyVNgq54+G9rVMGQXkOLvJSllo4uifq1FqJO0b/8Jwj/Dtf+GbV/WAbbrcogYCgyCGX3yHvNLCcjPF1/acq5eiQuc0T3yPv6ZfPGdBaTW6Liw174zdcrTgYoS3fAtKrDseEBHVHV7E8GT431mRgKsoBdVjKgeXWW+HkeJp6AnM2hyyePARCWCpfJTP31NgphHBbFlBOjlLl61LEgQ5+M+H+9vZV46+/wPr7E823DGwvdNyH3y3eKf/TCSrH5e9Fk6fNwsui/NvV60wLli9aNPJ3V5/nH7GhMVwL3rPzLZGS8oaGMK1zGFx5wp83wTlB6TNoAPOOCuls2UFyzszdWrEAZviDG1+swyhcnkBq6eXUIa+xOayTfWUl+dY15xz1BYXzwUmhkLwMxgEKq5tTWVJ9AqcG8VP1nJ9nwrg9rNfAQQsnXDpnb4eLZl0y6T+ScvVUiHoXf5w8w6LDSwhUWH5Ipj8IU7jn4VjGYQqAMPiCtyjZ/ghNQEdaruQsJ0Xo9kc4pf050RbAK/ndx92mdETngbxHog4ZQr2BAhF6DsddGZLhW0pZlJQrE10wpYlM/vrMAwvF6gLg1x5M2EEGxPEvMY4W7nJtnfZ1mjhuoxH0LRVKj0y5YvYUEEoVZn9t8s1xuWM7/N0z/lGeGn51kq+vo+C9BpEg5Qzhnsd5X2SB1sPJiES0zVHQG8Lx4WmU4CR3+JAmy2JpgVddwmtFqAQrkTJCOYD6wAo9L/bDqwY2YLFygMPhzSNr+pRGXnv+MfIaCRmxNfl0oaER65eolzRIANea4Hu8bHdHNOGyObvjBV3ub7r82F9aVKV8fWWnwlk8UVJFaFEno8d/p9DQMLDSUX97o7T1gu9amZCIT5QYOek16B7sGlANnAQAWnQWq3cZaU6Oys3dWjCAyivigxtfrMNYb0gmf4m/Id/RtgCrl/OvO+/YX1gl+Arlubc3Lh64/MdRofQJWZgqYl05vn4Td5R3jWSMLiZ84j1sXTwZPI2vVBdWGtr3mzv1tNdD3OTL5lyD5vopwNKDiJAgLOccpSidU7sUWDI5Z3rnqiAAPCxwuIeRVSkCfCBSJdk8Z2/I4mWGwIx8L6odvfman3z+uM97CAoTrpozImoxD8cFg58ay9c8pKwt49z9udlfnTw6xsp1FXrVj/lXB9YrQWFUKAwtlBtfnDxt9pUh76yLJ34GBu8O2I+KeD0Ue9oQnS1Djg5vYRX8cEw94NAPaXWuDenFAYEsrwREANvBTwqWi9f0Axv4z8+1jgZZwGJFqg7mlBHQyL3AKMshRA/qgHmyUOCPTSVXo2vukg8mfPjtQlvyIo6r1zuYDU34IdUk+SIN9I0Kq10ENkq/80dsFxMDhuX0Irz5cPjMi6bwzyCwbpJOu/xn/dqqjbPQCw4A3P4MpSI7y3O9QMnCYdcrADKEK62tme97HiwFV+v8sO+dQZnqmnxvC4lUas7ekIVysKtsqcbRPYXWbidPn2qfYZKVLxW8EI8eW42rd8KHW65tf6mq6uVoJI/P/srkPYnz5k28dMYUtKEZ9Ri6AqNz0Ep4WnZ7JYnOnfuVia+EfJMun7VjVI0mIhAXYq/VE/NHiO60nHc6CRWmxq87uJZS6TPKHFBlKi6kXf/g4klzA/48c3vrMpzBXlEoVH85/bwTXlLZzE+c9osdGpLy1Qj0EaKbPXpDUoQ1VVI5eO4lJ/PQIQ0oW8uzxVFPF6J4dJdWVWtR7g4jLm2IW79740X/lv4OjeOZOG32mfiNgwuhfhi2O91k8FpHhfIOV/WEq/NDl4RwpUVLkKLSezgLAAo87F4W7MlSTUSkUqSIC/+hl60B9g1TiK746QXjf+aZXWHKf8/on7QWvoS/Tf6FKv7Cw/tJeDKGaJZvQ+88VuWkVgEyofknfQvFXm9gZnjfz6ioDD9kuBSybmuLGz7/vxd9vCaw7LVxxXwE3frcYlOPMVWsjNdxEmLtFudpFdJcgxgGlliFp5QClNuMA5QAQA8PA+fwaWAj/MWjEl4Jwd8nW9P6VBRXr8aTqnuvv2D8fBWl+QlX3TKw1NL+PbxVeSSG197rtYJVIbkcNj5ffioaM3duutPwdivtKdNmHVOJo19jxq/BKc365DxwYI/FEeGP8NsH3+u3cOVL06efVdM0T73sl0MqScfZcOUJ6KxDsJzvF+HNJzR5u8DIK3WOrmekBrBLgaXceg3ECZZMdTFHfRCMBKuEJdjDL8RfW7ilMTI/+hHemMybyJe3ANsev7/3hVJj4+kV9Mj3O/oFOtphxH6zL578eACrH7RJ02acW2rq8f1yW2tI+77Kdu9axd/qMC8gStfOvGTyNZ0IjD5x1S0D2lvah2D++TA8OB5T8yGyksNfeeLPl9YsHtThdQRqcIkKAxzCPVtODm1mY4yx9OxoXY3jpviP6GG3lqvxfQ3dG97+6XlHLfa8ucKUS+eejze1zkRdd0CPLNXYnKNfn1t+saza1nH4zK9NvDPPV6+BCw1eRfkWXga8YGMMDXmlNIiH+vDfdVhI3RCXq/NnNp+8JE8X3p/aPGf7SqF6IFtlkhTGYA7ugyVYLzw/64lA9eCbixwNGCjOyVxn2wDaqw1gUF3b9YReRoFqFX8TzKwCE39KjL+EsTSpRk9D3EOw8f4ZXz7x5dCefHkCHliYanmngimcjl58RgGNoFKuGYjybOt9L/VIqufOuGTyD+oxBzWsRXN/WWxo/FK5iyvSWglrh4jz0f1AtQRj0TxE4ccfunjyzc2Rfai+Nu5PNv+0aZnpg1eiO/hdugYsKrfo6EgGwY+D8cPkAyBrS6y7eyLITQhIibIQ7g4oa40L0QqM5PjJ7OSdQrXwFs7I3omS8uqOSmNbY0e1rWffxparzztqncvwPa+7rrTjO71PxRrg0xhJdoSK/q5OVLfRE1+tTcotp8+4eMoNnQlfa0DJNHnazMujYunLCf5CwqZMdIR8RxWeRst+GKefv8G7pw8WypU3ulVaFtzQfPrGG/83oCITvj0Hf0PZDIuqyXA8hjgADfA4OBhve6PZYLSx7XIDBHeFBb6BAgwkybk4DarbM1XMOgNKQr6QhAXArzbmPKAG1M+xjoRlbl/Ln61uQZxfjYrRHzGv/qmlrfTwr5pPWFafd+NAsaDpW8BvNFbLycFY+HAlvg1ix19L7o7G516UsMP5xtG4Vin4ww/JAbMvmYyGvvbUpYBSBF7CPhz1uAET/JBNMa+u3Uz0A0Q44gIF2yHOle1ta/ja/3zMli/Dva+jIgvwPGgRHL4c6+I1hShqhZ340yuFMnYVkvjL4wX8QdQoTrBIqXTDHNwdD6R749vCg9D6twLRcHSFkdC2famxG4KGY0YuwrAY26Q9sJPKczGGJzHz8cB7yi+bT5MXxDoh9eAuB5Qc/IZTVE7+gF8O2Xvz9VZv6zoKWhXpNbhwbpYjSOaOV3C44YEWxwAimDEJzhY/AFcJZrX6u4aG1gk//+Jpq7tqktamq/RCh5OeL6Nlfw3L+sYPXmDXqyofOGI5/alW8I2yytTZl5zc2dauU7s3KKCUdvIVt21Zray+B0Phbv+I4ajTGv0TIziVYN1wX+/y0iOnN5/FI8T1ThscUNWEVfCZ+NndSwpxcesuHdsp479y7wH+GWas7OdjEvivmRdPuskjNqDwvgNKnfwDMPOKs75houIXuEn/V+q6B7DUM5UoaZ5z8aSvg+t9T+QbJaBq/uRLf4VVYst5JonPwYF10796rHomm/P7ndVyx5pqpXp1Q7H8vZsu/sRbWYoNv9uoAVUz+Lp+rxUDvw3hZ2IVKac0ivtXnnRge/XD0eWBX2xu/gg2Uhs3bZKAqok834yTaHxUrZxT7NZjt0o7/hYo3h78/ynxgJ/fT+loWf0EnrP9IOpo//W6zq3fj382aUBDw6Z8fcaYahTzW+H7YNrAqyjcB77vKSNU8QEqo2ryjAC/IWTMw3gr4Zy5F018dnMYuNkCqpWZ8M05g6O28r74cvFE7O2n8NV/vvK5EZ8TqqrNmnPLwRft+CADP2gxq2Ki2Ulj9PDcCye+vTkN2ewBzVdu8qVzTkBHPQ+9Fb/6b7ZAD5YfNfig7215FMkEO9twHrUKjy7+jh+v+P7siybfkq/j5rz/hwdUK3vGN27t2dbWtm3FVHbBE+WPocce2di9Z3+sBnGeigfbm/hpj9pRP8evOfGPxcU4S8bBcHvLmnfxjOX3eC70O7w//HTcUX315uZTa/9IaH1hmxT6gQlovVqe0nxTr4649DH8gY/D8FrMOBzG83uRfNUUn6gRT14sm0zF8qqZm5a7OjeD3/6HHC1g8uNeGj0PQJ6h4pO8l1TMY0mh+sc+xeLt06dOlJ+Tsco/WFfnkQ+WUZ1Z84mrbuzRsbrUGy7vVS3GfUxSGIpn4dvB4dvgMwwPtgfheWV/POrDw+2kJ4LEh991Ehcr0Uo8Rl+axNESbO3xB9IifCs6eg1/bQrf9KosxDvGy5L2aEWpR8fy9Tkcr6Nss4L+Ly+elTfcEqgqAAAAAElFTkSuQmCC;" vertex="1" parent="1">
          <mxGeometry x="557" y="731" width="66" height="56.9" as="geometry" />
        </mxCell>
      </root>
    </mxGraphModel>
  </diagram>
</mxfile>
